<svg width="17" height="22" viewBox="0 0 17 22" fill="none" xmlns="http://www.w3.org/2000/svg">
<path d="M1.13516 0.0859375C0.877344 0.189062 0.666797 0.382421 0.537891 0.644531L0.443359 0.837891V11C0.443359 20.3586 0.447656 21.175 0.516406 21.3168C0.632422 21.5832 0.877344 21.8152 1.13516 21.9141C1.36719 22 1.42734 22 8.5 22C15.5727 22 15.6328 22 15.8648 21.9141C16.1227 21.8152 16.3676 21.5832 16.4836 21.3168C16.5523 21.175 16.5566 20.4574 16.5695 12.6543C16.5738 7.975 16.5695 4.07773 16.5566 3.99609C16.5352 3.86719 16.2516 3.56641 14.6746 1.98516C13.652 0.9625 12.7668 0.0945301 12.7023 0.0601559C12.6035 0.00859261 11.7613 0 6.96602 0C1.52617 0.00429726 1.33711 0.00859261 1.13516 0.0859375ZM12.1609 2.13555C12.1781 3.7125 12.1824 3.73398 12.4875 4.05195C12.7926 4.36563 12.741 4.35703 14.3652 4.38281L15.8262 4.4043L15.8391 12.6457C15.8477 21.6305 15.8605 21.132 15.6113 21.2266C15.4566 21.2867 1.54336 21.2867 1.38867 21.2266C1.13945 21.132 1.15234 21.7766 1.15234 11C1.15234 0.287889 1.13945 0.872265 1.37578 0.773438C1.43594 0.751953 3.66602 0.734766 6.81133 0.734766L12.148 0.730469L12.1609 2.13555ZM14.1289 2.4707L15.3105 3.65234H14.2105H13.1105L13.0074 3.54062C12.9043 3.4332 12.9043 3.42461 12.8914 2.35898C12.8828 1.77031 12.8914 1.28906 12.9129 1.28906C12.9301 1.28906 13.4801 1.82187 14.1289 2.4707Z" fill="white"/>
<path d="M3.71329 6.31639C3.46407 6.41521 3.24493 6.61287 3.11602 6.8535C3.04727 6.9824 3.02579 7.10271 3.02579 7.32615C3.02149 7.6699 3.10743 7.88045 3.33087 8.10389C3.54141 8.31443 3.71758 8.39178 4.05274 8.41326C4.31915 8.42615 4.3793 8.41756 4.58985 8.30584C5.39336 7.88045 5.38477 6.76756 4.57266 6.35076C4.32774 6.22615 3.9711 6.20896 3.71329 6.31639ZM4.36641 7.11561C4.49532 7.2617 4.48672 7.43787 4.34922 7.57967C4.06563 7.85896 3.61016 7.54959 3.78204 7.19295C3.89805 6.94373 4.18165 6.90936 4.36641 7.11561Z" fill="white"/>
<path d="M6.65234 7.32617V7.69141H10.3262H14V7.32617V6.96094H10.3262H6.65234V7.32617Z" fill="white"/>
<path d="M3.88944 9.93438C3.50702 10.0031 3.20194 10.2695 3.06444 10.652C2.8453 11.275 3.24491 11.9453 3.89804 12.0656C4.7746 12.2246 5.4621 11.3481 5.08827 10.5488C4.87343 10.0805 4.40507 9.83985 3.88944 9.93438ZM4.35351 10.7637C4.6414 11.0473 4.26757 11.4984 3.90663 11.3008C3.77343 11.232 3.70898 11.0215 3.77343 10.8711C3.83788 10.7121 3.92382 10.6606 4.10858 10.6563C4.20312 10.6563 4.28476 10.6906 4.35351 10.7637Z" fill="white"/>
<path d="M6.66956 10.6691C6.65667 10.7035 6.65237 10.8711 6.66097 11.0473L6.67386 11.3652L10.3391 11.3781L14 11.3867V11V10.6133H10.3477C7.32698 10.6133 6.68675 10.6219 6.66956 10.6691Z" fill="white"/>
<path d="M3.75623 13.6211C3.42967 13.72 3.12889 14.0508 3.03865 14.416C2.81951 15.2926 3.77342 16.0574 4.57693 15.645C5.38474 15.2367 5.39333 14.1153 4.59412 13.6985C4.35349 13.5739 4.02693 13.5438 3.75623 13.6211ZM4.3492 14.4203C4.49099 14.5621 4.49529 14.7383 4.35779 14.893C4.16873 15.1164 3.81639 15.0219 3.75193 14.7383C3.67459 14.3903 4.09568 14.1668 4.3492 14.4203Z" fill="white"/>
<path d="M6.65234 14.6738V15.0391H10.3262H14V14.6738V14.3086H10.3262H6.65234V14.6738Z" fill="white"/>
<path d="M3.71329 17.3164C3.46407 17.4152 3.24493 17.6129 3.11602 17.8535C3.04727 17.9824 3.02579 18.1027 3.02579 18.3262C3.02149 18.6699 3.10743 18.8804 3.33087 19.1039C3.54141 19.3144 3.71758 19.3918 4.05274 19.4133C4.31915 19.4262 4.3793 19.4176 4.58985 19.3058C5.39336 18.8804 5.38477 17.7676 4.57266 17.3508C4.32774 17.2262 3.9711 17.209 3.71329 17.3164ZM4.36641 18.1156C4.49532 18.2617 4.48672 18.4379 4.34922 18.5797C4.06563 18.859 3.61016 18.5496 3.78204 18.1929C3.89805 17.9437 4.18165 17.9094 4.36641 18.1156Z" fill="white"/>
<path d="M6.65234 18.3262V18.6914H10.3262H14V18.3262V17.9609H10.3262H6.65234V18.3262Z" fill="white"/>
</svg>
