<svg width="27" height="28" viewBox="0 0 27 28" fill="none" xmlns="http://www.w3.org/2000/svg">
<path d="M4.5 27.5C3.94772 27.5 3.5 27.0523 3.5 26.5L3.5 1.5C3.5 0.947716 3.94772 0.5 4.5 0.5C5.05228 0.5 5.5 0.947716 5.5 1.5L5.5 26.5C5.5 27.0523 5.05228 27.5 4.5 27.5Z" fill="#029AAD"/>
<path d="M13.5 27.5C12.9477 27.5 12.5 27.0523 12.5 26.5L12.5 1.5C12.5 0.947716 12.9477 0.5 13.5 0.5C14.0523 0.5 14.5 0.947716 14.5 1.5L14.5 26.5C14.5 27.0523 14.0523 27.5 13.5 27.5Z" fill="#029AAD"/>
<path d="M22.5 27.5C21.9477 27.5 21.5 27.0523 21.5 26.5V1.5C21.5 0.947716 21.9477 0.5 22.5 0.5C23.0523 0.5 23.5 0.947716 23.5 1.5V26.5C23.5 27.0523 23.0523 27.5 22.5 27.5Z" fill="#029AAD"/>
</svg>
