<svg width="25" height="26" viewBox="0 0 25 26" fill="none" xmlns="http://www.w3.org/2000/svg">
<path d="M8.30585 2.06088C6.40091 2.35337 4.77978 3.79003 4.14337 5.73425C3.93696 6.36225 3.86816 6.89992 3.89826 7.66556C3.92836 8.54734 4.07456 9.14093 4.44007 9.88506C4.67228 10.3625 5.09799 11.0034 5.27429 11.1497C5.31299 11.1798 5.34739 11.2228 5.34739 11.2443C5.34739 11.2658 5.21409 11.3475 5.05069 11.4293C4.22937 11.8465 3.24895 12.6594 2.65553 13.4122C1.89442 14.3886 1.36981 15.5543 1.1247 16.7974C1.0387 17.2533 1.0301 17.4297 1.0129 19.533L1 21.7783L1.129 21.9074L1.25371 22.0364H6.80942H12.3608L12.4855 22.1827C12.6532 22.3719 12.9199 22.4795 13.1349 22.4451C13.2381 22.4278 13.466 22.2988 13.7584 22.0966C14.0594 21.8859 14.2314 21.7869 14.2615 21.8171C14.2873 21.8429 14.2701 22.0407 14.2056 22.3805C14.154 22.6687 14.1196 22.9612 14.1368 23.0343C14.1798 23.2537 14.326 23.443 14.5195 23.5333C14.7603 23.6451 16.8716 24.0323 17.0565 23.9978C17.2715 23.9591 17.4607 23.8215 17.551 23.6408C17.5983 23.5505 17.6715 23.2709 17.7102 23.0171C17.7919 22.5268 17.822 22.4364 17.8994 22.4838C17.9252 22.501 18.0628 22.6859 18.2047 22.8967C18.3466 23.1075 18.5143 23.3268 18.5745 23.387C18.7293 23.529 19.0045 23.5935 19.2023 23.5376C19.4216 23.4774 21.2534 22.1784 21.3738 21.9977C21.4899 21.8257 21.5071 21.4987 21.4125 21.3138C21.3781 21.2493 21.2362 21.0256 21.0943 20.8191C20.832 20.4363 20.7976 20.2987 20.9739 20.3374C21.9801 20.5481 22.1478 20.5438 22.4317 20.2815C22.5865 20.1352 22.6295 19.9632 22.8531 18.6943C23.0552 17.5501 23.0509 17.4512 22.8273 17.1845C22.6897 17.021 22.5005 16.9479 21.9586 16.849C21.7049 16.8017 21.5071 16.7457 21.4942 16.7156C21.4856 16.6855 21.5501 16.6038 21.6404 16.5393C21.7307 16.4748 21.9328 16.3328 22.0919 16.2167C22.4747 15.9457 22.5564 15.808 22.5392 15.4768C22.522 15.2231 22.5091 15.2016 21.8425 14.2165C21.4684 13.666 21.1158 13.1842 21.0599 13.1498C20.9137 13.0509 20.6772 13.0079 20.5052 13.0466C20.4235 13.0638 20.1569 13.2186 19.9204 13.3864C19.6237 13.5971 19.4689 13.6832 19.4388 13.6531C19.4087 13.6229 19.4259 13.438 19.4861 13.081C19.6022 12.4186 19.5635 12.2207 19.2668 11.997C19.1507 11.9067 18.9357 11.8551 17.9639 11.6744C17.3231 11.554 16.7641 11.4551 16.7211 11.4551C16.5706 11.4551 16.2739 11.6314 16.1836 11.7777C16.1363 11.8594 16.0546 12.1218 16.0116 12.367C15.8912 12.9863 15.8869 13.0036 15.8267 13.0036C15.8009 13.0036 15.7192 12.9132 15.6504 12.8057C15.401 12.41 15.1473 12.096 15.0097 12.0142C14.842 11.911 14.5109 11.9024 14.3303 11.9927C14.2099 12.0573 14.197 12.0573 13.8917 11.8508C13.724 11.7346 13.4273 11.5583 13.2381 11.4551C13.0489 11.3518 12.8855 11.2615 12.8769 11.2529C12.8639 11.2443 12.9156 11.1755 12.9887 11.098C13.3284 10.741 13.7627 10.0141 13.9906 9.43342C14.3045 8.62046 14.4206 7.43328 14.2701 6.5515C13.9347 4.52126 12.5629 2.87814 10.6795 2.25014C9.95709 2.00496 9.09277 1.93614 8.30585 2.06088ZM10.228 2.84803C10.6752 2.96847 11.3546 3.29967 11.733 3.58786C13.5778 4.98151 14.1626 7.54942 13.1134 9.64419C12.1114 11.6443 9.87539 12.6336 7.81994 11.9841C5.45919 11.24 4.09607 8.67208 4.74538 6.19019C5.19689 4.46964 6.57292 3.14052 8.27145 2.78351C8.70146 2.69318 9.78938 2.73189 10.228 2.84803ZM6.41381 12.1261C6.83952 12.3971 7.42003 12.6422 7.96615 12.7756C8.36606 12.8788 8.50796 12.8917 9.10997 12.8917C10.2409 12.8874 11.0106 12.6551 11.9566 12.0314L12.3092 11.7949L12.593 11.9239C12.7478 11.997 13.0403 12.1519 13.2424 12.2766L13.6079 12.496L13.4445 12.6121C13.3542 12.6766 13.0833 12.8702 12.8381 13.0423C12.5973 13.2143 12.3651 13.4036 12.3221 13.4681C12.2705 13.5455 12.249 13.666 12.249 13.8638C12.249 14.1434 12.249 14.1477 12.5672 14.608C12.7822 14.9177 12.8726 15.0854 12.8424 15.1155C12.8166 15.1413 12.6532 15.1284 12.3522 15.0682C11.6986 14.9435 11.5137 14.9607 11.2858 15.1671C11.1267 15.3177 11.088 15.451 10.873 16.6382C10.658 17.8383 10.6494 18.0275 10.8085 18.2512C10.9375 18.4362 11.1654 18.5265 11.6986 18.6211C11.9738 18.6685 12.1458 18.7158 12.1587 18.7545C12.1759 18.7932 12.0254 18.9308 11.7416 19.1373C10.9676 19.7051 10.9332 19.9072 11.4879 20.7331C11.6814 21.0256 11.8405 21.2708 11.8405 21.2837C11.8405 21.2966 10.3957 21.3052 8.62836 21.3052H5.41189L5.42479 20.3159L5.43769 19.3223L5.30439 19.1889C5.19259 19.0814 5.14959 19.0642 5.03348 19.0857C4.72818 19.1459 4.68948 19.318 4.71098 20.4836L4.72388 21.3052H3.22745H1.73102L1.74822 19.2319C1.76112 17.3006 1.76972 17.1286 1.85572 16.7543C2.34593 14.6252 3.62306 12.9476 5.44629 12.0314C5.8849 11.8121 5.9236 11.7992 6.00961 11.8637C6.06121 11.8981 6.24181 12.0185 6.41381 12.1261ZM17.8306 12.3799C18.3767 12.4874 18.8282 12.582 18.8368 12.5906C18.8454 12.5992 18.8024 12.8831 18.7422 13.2186C18.6777 13.5541 18.639 13.8767 18.6519 13.9326C18.6691 13.9886 18.7336 14.066 18.7981 14.1047C18.8626 14.1434 19.0131 14.2423 19.1335 14.3198C19.456 14.5348 19.5291 14.5219 20.1096 14.1219C20.3805 13.9326 20.6256 13.7778 20.6471 13.7778C20.6686 13.7778 20.9481 14.1692 21.2663 14.651L21.8468 15.5199L21.305 15.907L20.7632 16.2941L20.7675 16.5092C20.7761 16.9307 20.8363 17.1931 20.9524 17.3092C21.047 17.3995 21.1545 17.434 21.6619 17.52C22.0446 17.5845 22.2639 17.6404 22.2768 17.6791C22.3026 17.7437 21.95 19.718 21.907 19.761C21.8941 19.7739 21.6189 19.7395 21.2964 19.6793C20.9696 19.6191 20.6643 19.5846 20.5998 19.6018C20.4536 19.6363 20.0537 20.2341 20.0537 20.4234C20.0537 20.5094 20.1612 20.7116 20.402 21.0729C20.5955 21.3654 20.7374 21.6192 20.7245 21.645C20.7073 21.6665 20.4106 21.8859 20.0623 22.1267C19.714 22.3719 19.3399 22.6343 19.2324 22.7117L19.0346 22.8537L18.682 22.3375C18.4842 22.0536 18.2821 21.7912 18.2262 21.7525C18.1359 21.6923 18.0886 21.6923 17.7274 21.774C17.4908 21.8257 17.2973 21.8902 17.25 21.9375C17.1941 21.9934 17.1339 22.2085 17.0522 22.6429L16.9318 23.2623L16.7856 23.258C16.6093 23.2494 14.8979 22.9139 14.8635 22.8795C14.8506 22.8709 14.8893 22.5827 14.9538 22.2472C15.0441 21.7396 15.0527 21.6149 15.0097 21.5246C14.9409 21.3783 14.3905 21.0084 14.2357 21.0084C14.0852 21.0041 14.0508 21.0213 13.4918 21.4127L13.0317 21.7353L12.4382 20.8449C12.1114 20.3546 11.8577 19.9417 11.8749 19.9245C11.8921 19.9115 12.0899 19.7653 12.3135 19.6061C12.8769 19.2018 12.9156 19.1631 12.9156 19.0083C12.9156 18.7416 12.7951 18.2383 12.7091 18.1566C12.6532 18.0964 12.4425 18.0318 12.034 17.9501C11.7115 17.8813 11.432 17.8168 11.4191 17.7996C11.4062 17.7867 11.4793 17.3135 11.5825 16.7457C11.7588 15.7951 11.7803 15.7134 11.8577 15.7134C11.9093 15.7134 12.1458 15.7521 12.3909 15.7994C12.9758 15.9113 13.1349 15.9113 13.2424 15.7865C13.4101 15.5973 13.6466 15.1585 13.6466 15.0381C13.6466 14.9607 13.5305 14.7456 13.3026 14.4015C13.1134 14.1176 12.9586 13.8724 12.9586 13.8552C12.9586 13.8165 14.6141 12.6594 14.6657 12.6594C14.6829 12.6637 14.8549 12.8917 15.0441 13.1756C15.2634 13.4982 15.4311 13.7047 15.4999 13.7348C15.659 13.8036 16.2954 13.6703 16.433 13.5412C16.5104 13.4724 16.5534 13.3305 16.6394 12.8745C16.7598 12.2336 16.7684 12.1863 16.8114 12.1863C16.8286 12.1863 17.2887 12.2723 17.8306 12.3799Z" fill="black"/>
<path d="M16.2094 15.2618C15.5644 15.4381 14.9151 15.9801 14.627 16.5737C14.4206 16.9995 14.3561 17.2877 14.3647 17.7566C14.369 18.462 14.6743 19.1244 15.2075 19.6104C15.6762 20.032 16.1965 20.2298 16.8545 20.2298C19.0862 20.2341 20.1784 17.4899 18.5745 15.907C18.0628 15.3994 17.5511 15.1929 16.8244 15.2016C16.6008 15.2016 16.3255 15.2317 16.2094 15.2618ZM17.3533 15.9715C17.8779 16.1306 18.2133 16.436 18.467 16.9737C18.7379 17.5544 18.6691 18.2469 18.2907 18.776C17.6027 19.7395 16.2309 19.7868 15.4827 18.8706C14.6786 17.8813 15.1 16.3973 16.3083 15.9844C16.661 15.864 16.9921 15.8597 17.3533 15.9715Z" fill="black"/>
</svg>
