<svg width="13" height="14" viewBox="0 0 13 14" fill="none" xmlns="http://www.w3.org/2000/svg">
<path d="M0 13.2786C0 12.8802 0.32335 12.5572 0.722222 12.5572H12.2778C12.6767 12.5572 13 12.8802 13 13.2786C13 13.677 12.6767 14 12.2778 14H0.722223C0.32335 14 0 13.677 0 13.2786Z" fill="#029AAD"/>
<path d="M10.0745 5.38466L7.09819 8.35833V0.721417C7.09819 0.323195 6.77463 0 6.37597 0C5.9773 0 5.65374 0.323195 5.65374 0.721417V8.35833L2.67747 5.38537C2.39508 5.10329 1.93792 5.10329 1.65624 5.38537C1.37385 5.66745 1.37385 6.1241 1.65624 6.40543L5.74185 10.4865C5.91518 10.6596 6.15207 10.713 6.37672 10.6733C6.60062 10.713 6.83823 10.6589 7.01156 10.4865L11.0972 6.40543C11.3796 6.12335 11.3796 5.66674 11.0972 5.38537C10.814 5.10329 10.3569 5.10329 10.0745 5.38466Z" fill="#029AAD"/>
</svg>
