<svg width="12" height="12" viewBox="0 0 12 12" fill="none" xmlns="http://www.w3.org/2000/svg">
<path d="M9.57937 0.0750735C9.28869 0.168841 9.21368 0.225101 8.66514 0.771297L8.1377 1.2964L9.41997 2.57867L10.7046 3.86328L11.1992 3.371C11.7266 2.8459 11.8485 2.69119 11.9259 2.44739C12.0314 2.10514 12.0079 1.79102 11.8485 1.46049C11.7595 1.27295 11.7266 1.2331 11.2461 0.754888C10.7069 0.215725 10.6132 0.147743 10.3061 0.0656967C10.1256 0.0164688 9.74112 0.021157 9.57937 0.0750735Z" fill="#029AAD"/>
<path d="M4.07785 5.35864L0.74441 8.69207L0.364652 10.2158C0.0856932 11.334 -0.0127627 11.7583 0.00130246 11.8052C0.0224002 11.8895 0.109135 11.9786 0.191182 11.9997C0.254475 12.0161 3.18237 11.3058 3.29723 11.2449C3.33005 11.2285 4.84674 9.72351 6.66817 7.90208L9.97817 4.58974L8.69355 3.30513L7.41128 2.02286L4.07785 5.35864Z" fill="#029AAD"/>
</svg>
