<svg width="15" height="18" viewBox="0 0 15 18" fill="none" xmlns="http://www.w3.org/2000/svg">
<path d="M13.7729 1.31127C12.1367 -0.437089 9.4747 -0.437089 7.83852 1.31127L1.59031 7.98779C1.39748 8.19384 1.39748 8.52765 1.59031 8.7337C1.78314 8.93975 2.09553 8.93975 2.28836 8.7337L8.53654 2.05718C9.74943 0.762161 11.8619 0.762161 13.0748 2.05718C14.3258 3.39392 14.3258 5.56932 13.0748 6.90606L4.35005 16.3339C3.6038 17.1313 2.30363 17.1313 1.55741 16.3339C0.787528 15.5113 0.787528 14.173 1.55741 13.3503L9.93314 4.29487C10.2127 3.99611 10.7006 3.99611 10.9802 4.29487C11.2689 4.6034 11.2689 5.10568 10.9802 5.41424L2.95398 14.0962C2.7875 14.2741 2.7875 14.6642 2.95398 14.8421C3.14681 15.0481 3.4592 15.0481 3.65203 14.8421L11.6782 6.16012C12.3522 5.43994 12.3522 4.2691 11.6782 3.54896C11.0255 2.8515 9.88682 2.85252 9.23509 3.54896L0.859351 12.6044C-0.28645 13.8287 -0.28645 15.8554 0.859351 17.0798C1.41906 17.6779 2.16288 18 2.95394 18C3.74501 18 4.48889 17.6779 5.04811 17.0798L13.7729 7.65194C15.409 5.90358 15.409 3.05959 13.7729 1.31127Z" fill="black"/>
</svg>
