<svg width="13" height="11" viewBox="0 0 13 11" fill="none" xmlns="http://www.w3.org/2000/svg">
<path d="M1.1553 0.155272L1.09183 0.21621V0.802733V1.38672H0.634797C0.149836 1.38672 0.0762031 1.40195 0.0279609 1.50605C0.00764842 1.54922 3.1238e-05 2.84414 3.1238e-05 6.15C3.1238e-05 11.0402 -0.00504689 10.8473 0.114289 10.893C0.170148 10.9133 12.8299 10.9133 12.8858 10.893C13.0051 10.8473 13 11.0402 13 6.15C13 2.84414 12.9924 1.54922 12.9721 1.50605C12.9239 1.40195 12.8502 1.38672 12.3653 1.38672H11.9082V0.802733V0.21621L11.8448 0.155272C11.7686 0.0765619 11.7026 0.0740232 11.017 0.142577C10.136 0.231444 9.46058 0.35332 8.72171 0.558984C8.07679 0.739257 7.62229 0.899219 6.83772 1.22676L6.50257 1.36387L6.02523 1.16836C4.56019 0.566601 3.37952 0.27207 1.85609 0.129882C1.27718 0.0765619 1.22894 0.0791006 1.1553 0.155272ZM2.41214 0.624999C3.51917 0.767187 4.64651 1.07187 5.7764 1.53398L6.25882 1.73203L6.26644 6.05098L6.27151 10.3699L5.87288 10.2049C4.6389 9.69961 3.42523 9.39238 2.11761 9.25781C1.84847 9.22988 1.60218 9.20703 1.57425 9.20703C1.52347 9.20703 1.52347 9.20703 1.52347 4.87539V0.54121L1.7723 0.558984C1.90687 0.56914 2.19632 0.599608 2.41214 0.624999ZM11.4766 4.87285V9.19941L11.1414 9.22988C9.72718 9.35684 8.40179 9.6793 7.12718 10.2049L6.72855 10.3699L6.73362 6.05098L6.74124 1.73203L7.22366 1.53398C8.36116 1.06933 9.48851 0.764647 10.5879 0.627539C11.1313 0.561522 11.1592 0.556445 11.3319 0.553905L11.4766 0.548827V4.87285ZM1.09183 5.64219C1.09183 8.19902 1.09945 9.48125 1.11722 9.51172C1.16292 9.59551 1.22386 9.61074 1.67835 9.65137C2.58734 9.73262 3.27542 9.84434 3.98636 10.0297C4.33167 10.1186 5.00706 10.3318 5.24319 10.4232L5.37015 10.474L2.90218 10.4766H0.431672V6.14746V1.81836H0.76175H1.09183V5.64219ZM12.5684 6.14746V10.4766H10.1004C8.74456 10.4766 7.64007 10.4715 7.64515 10.4664C7.67054 10.441 8.42972 10.1922 8.75979 10.1008C9.61292 9.86211 10.3112 9.7377 11.309 9.65137C11.7813 9.6082 11.8397 9.59551 11.8828 9.51172C11.9006 9.48125 11.9082 8.19902 11.9082 5.64219V1.81836H12.2383H12.5684V6.14746Z" fill="black" fill-opacity="0.5"/>
</svg>
