<svg width="13" height="13" viewBox="0 0 13 13" fill="none" xmlns="http://www.w3.org/2000/svg">
<path d="M6.35937 0.819213C6.17187 0.854369 5.99023 0.965697 5.66503 1.24402C5.33691 1.52527 5.19921 1.6073 5.05859 1.6073C5.00585 1.6073 4.79199 1.57214 4.58105 1.53113C3.97461 1.41101 3.71386 1.45496 3.4707 1.72742C3.34472 1.86511 3.27441 2.00867 3.11621 2.4657C3.00195 2.79382 2.91699 2.92566 2.78222 2.9989C2.73828 3.01941 2.54785 3.09265 2.36035 3.1571C1.95312 3.29773 1.87402 3.33581 1.72168 3.47351C1.45801 3.71374 1.41113 3.97742 1.53125 4.58093C1.57226 4.78894 1.60742 5.00574 1.60742 5.05847C1.60742 5.1991 1.52539 5.33679 1.24414 5.66492C0.921875 6.03699 0.810547 6.25378 0.810547 6.49988C0.810547 6.74597 0.921875 6.96277 1.24414 7.33484C1.52539 7.66296 1.60742 7.80066 1.60742 7.94128C1.60742 7.99402 1.57226 8.20789 1.53125 8.41882C1.41113 9.02234 1.45801 9.28601 1.72168 9.52624C1.87402 9.66394 1.94433 9.6991 2.38965 9.85437C2.93457 10.0448 2.95508 10.0653 3.1455 10.6102C3.21875 10.8153 3.29785 11.0233 3.32129 11.0731C3.39453 11.2108 3.57031 11.3895 3.69921 11.4598C3.86035 11.5448 4.26171 11.5419 4.66601 11.454C5.16113 11.3485 5.21093 11.3632 5.66796 11.7587C6.33593 12.3387 6.6582 12.3387 7.33495 11.7557C7.66308 11.4745 7.80077 11.3925 7.9414 11.3925C7.99413 11.3925 8.21093 11.4276 8.41893 11.4686C9.01659 11.5887 9.28905 11.5419 9.52636 11.2782C9.66405 11.1259 9.69921 11.0555 9.85448 10.6102C10.0449 10.0653 10.0654 10.0448 10.6015 9.86023C11.0381 9.70789 11.126 9.66394 11.2783 9.52624C11.542 9.28894 11.5889 9.01648 11.4687 8.41882C11.4277 8.20789 11.3926 7.99402 11.3926 7.94128C11.3926 7.80066 11.4746 7.66296 11.7558 7.33484C12.3389 6.65808 12.3389 6.34167 11.7558 5.66492C11.4746 5.33679 11.3926 5.1991 11.3926 5.05847C11.3926 5.00574 11.4277 4.78894 11.4687 4.58093C11.5889 3.98328 11.542 3.71081 11.2783 3.47351C11.126 3.33581 11.0381 3.29187 10.6015 3.13953C10.0654 2.95496 10.0449 2.93445 9.85448 2.38953C9.69921 1.94421 9.66405 1.8739 9.52636 1.72156C9.28612 1.45788 9.02245 1.41101 8.41893 1.53113C8.21093 1.57214 7.99413 1.6073 7.9414 1.6073C7.80077 1.6073 7.66308 1.52527 7.33495 1.24402C6.91308 0.880736 6.65234 0.766479 6.35937 0.819213ZM6.69921 1.34363C6.7578 1.37292 6.92773 1.50476 7.07128 1.6366C7.56054 2.07312 7.77733 2.13171 8.4453 2.00574C8.91698 1.91785 8.99315 1.91492 9.10741 1.97351C9.21581 2.02917 9.28319 2.16101 9.43261 2.60046C9.64061 3.20398 9.79589 3.35925 10.3994 3.56726C10.8389 3.71667 10.9707 3.78406 11.0264 3.89246C11.0849 4.00671 11.082 4.08288 10.9941 4.55456C10.8682 5.22253 10.9267 5.43933 11.3633 5.92859C11.832 6.45007 11.8291 6.54968 11.3369 7.10046C11.2226 7.22937 11.0879 7.41687 11.0381 7.51355C10.9092 7.77136 10.9004 7.95007 10.9941 8.44519C11.082 8.91687 11.0849 8.99304 11.0264 9.1073C10.9707 9.2157 10.8389 9.28308 10.3994 9.43249C9.79589 9.6405 9.64061 9.79578 9.43261 10.3993C9.28319 10.8387 9.21581 10.9706 9.10741 11.0262C8.99022 11.0878 8.89061 11.0819 8.44823 10.994C7.8037 10.8651 7.55761 10.9296 7.10058 11.3368C6.54394 11.8348 6.45605 11.8348 5.89941 11.3368C5.7705 11.2225 5.58007 11.0848 5.4746 11.0321C5.29882 10.9471 5.26367 10.9384 5.0205 10.9413C4.87695 10.9442 4.62792 10.9735 4.46679 11.0087C3.85742 11.1405 3.80761 11.1053 3.56738 10.3993C3.35937 9.79578 3.2041 9.6405 2.60058 9.43249C2.16113 9.28308 2.0293 9.2157 1.97363 9.1073C1.91504 8.99304 1.91797 8.91687 2.00586 8.44519C2.13183 7.77722 2.07324 7.56042 1.63672 7.07117C1.1709 6.55261 1.1709 6.44714 1.63672 5.92859C2.07324 5.43933 2.13183 5.22253 2.00586 4.55456C1.91797 4.08288 1.91504 4.00671 1.97363 3.89246C2.0293 3.78406 2.16113 3.71667 2.60058 3.56726C3.2041 3.35925 3.35937 3.20398 3.56738 2.60046C3.71679 2.16101 3.78418 2.02917 3.89257 1.97351C4.00683 1.91492 4.083 1.91785 4.55468 2.00574C5.22265 2.13171 5.43945 2.07312 5.9287 1.6366C6.33007 1.27624 6.4707 1.22351 6.69921 1.34363Z" fill="black" fill-opacity="0.5"/>
<path d="M6.10449 3.00195C5.61523 3.07812 5.27832 3.18359 4.87988 3.38867C3.95117 3.86328 3.28027 4.74805 3.05469 5.79688C2.97852 6.14258 2.97852 6.85742 3.05469 7.20312C3.32422 8.44824 4.2207 9.45312 5.40723 9.83691C5.81152 9.96582 6.03711 10.001 6.5 10.001C6.74316 10.001 7.0127 9.9834 7.12988 9.95996C8.58008 9.67285 9.67285 8.58008 9.95996 7.12988C9.9834 7.0127 10.001 6.74316 10.001 6.5C10.001 6.04004 9.96582 5.80859 9.83691 5.41016C9.66699 4.88574 9.38281 4.42871 8.97852 4.02148C8.48047 3.52344 7.89746 3.20703 7.19727 3.05469C6.98926 3.01074 6.2832 2.97559 6.10449 3.00195ZM7.14453 3.52344C7.7627 3.66992 8.25781 3.94824 8.67676 4.38184C8.92578 4.63672 9.04004 4.79785 9.20703 5.12012C9.65527 5.99023 9.6582 6.98633 9.20996 7.87695C9.06934 8.1582 8.94043 8.33691 8.68262 8.60352C7.74512 9.58203 6.31836 9.82227 5.12012 9.20703C4.79785 9.04004 4.63672 8.92578 4.38184 8.67676C3.66992 7.98828 3.33594 6.99219 3.49414 6.03711C3.71387 4.72168 4.6748 3.74316 5.9873 3.49707C6.27441 3.44434 6.86914 3.45605 7.14453 3.52344Z" fill="black" fill-opacity="0.5"/>
<path d="M7.62793 4.58105C7.56641 4.63965 7.55469 4.68066 7.55469 4.81543V4.97656H7.39355C7.19727 4.97656 7.08594 5.06152 7.08594 5.21094C7.08594 5.36035 7.19727 5.44531 7.39355 5.44531H7.55469V5.60645C7.55469 5.80273 7.63965 5.91406 7.78906 5.91406C7.93848 5.91406 8.02344 5.80273 8.02344 5.60645V5.44531H8.18457C8.38086 5.44531 8.49219 5.36035 8.49219 5.21094C8.49219 5.06152 8.38086 4.97656 8.18457 4.97656H8.02344V4.81543C8.02344 4.61914 7.93848 4.50781 7.78906 4.50781C7.7334 4.50781 7.67188 4.53418 7.62793 4.58105Z" fill="black" fill-opacity="0.5"/>
<path d="M6.125 4.90908C6.05176 4.9706 4.71289 8.05556 4.71289 8.1581C4.71289 8.32216 4.94434 8.43349 5.0791 8.33388C5.1084 8.31337 5.22559 8.079 5.34277 7.81533L5.55078 7.33486H6.26562H6.98047L7.18848 7.81533C7.30566 8.079 7.42285 8.31337 7.45215 8.33388C7.58691 8.43349 7.81836 8.32216 7.81836 8.1581C7.81836 8.05556 6.47949 4.9706 6.40625 4.90908C6.37402 4.88271 6.30957 4.85927 6.26562 4.85927C6.22168 4.85927 6.15723 4.88271 6.125 4.90908ZM6.51465 6.2538C6.64355 6.55263 6.75488 6.81044 6.75781 6.82509C6.76367 6.83974 6.54688 6.85146 6.26562 6.85146C5.98438 6.85146 5.76758 6.83974 5.77344 6.82509C5.83203 6.66396 6.25391 5.70888 6.26562 5.70888C6.27441 5.70888 6.38574 5.95498 6.51465 6.2538Z" fill="black" fill-opacity="0.5"/>
</svg>
