<svg width="15" height="20" viewBox="0 0 15 20" fill="none" xmlns="http://www.w3.org/2000/svg">
<path d="M12.7684 7.77344V5.80664C12.7684 2.88053 10.405 0.5 7.5 0.5C4.59496 0.5 2.23158 2.88053 2.23158 5.80664V7.77344H0.5V12.4492C0.5 16.337 3.64016 19.5 7.5 19.5C11.3598 19.5 14.5 16.337 14.5 12.4492V7.77344H12.7684ZM3.33684 5.80664C3.33684 3.49439 5.20441 1.61328 7.5 1.61328C9.7956 1.61328 11.6632 3.49439 11.6632 5.80664V7.77344H3.33684V5.80664ZM13.3947 12.4492C13.3947 15.7232 10.7504 18.3867 7.5 18.3867C4.24961 18.3867 1.60526 15.7232 1.60526 12.4492V8.88672H13.3947V12.4492Z" fill="black"/>
<path d="M6.94734 14.376V16.1107H8.0526V14.376C8.90218 14.1331 9.52629 13.3446 9.52629 12.4121C9.52629 11.2867 8.61728 10.3711 7.49997 10.3711C6.38266 10.3711 5.47366 11.2867 5.47366 12.4121C5.47366 13.3446 6.09776 14.1331 6.94734 14.376ZM7.49997 11.4844C8.00784 11.4844 8.42103 11.9006 8.42103 12.4121C8.42103 12.9237 8.00784 13.3398 7.49997 13.3398C6.9921 13.3398 6.57892 12.9237 6.57892 12.4121C6.57892 11.9006 6.9921 11.4844 7.49997 11.4844Z" fill="black"/>
</svg>
