<svg width="50" height="50" viewBox="0 0 50 50" fill="none" xmlns="http://www.w3.org/2000/svg">
<path d="M12.6787 49.8232C9.70517 49.6879 8.08987 49.1931 7.01548 48.774C5.59188 48.2198 4.57693 47.56 3.50849 46.493C2.44004 45.426 1.77876 44.4111 1.22745 42.9875C0.808393 41.9131 0.31355 40.2978 0.178322 37.3243C0.0297203 34.11 0 33.1456 0 25.0022C0 16.8589 0.0326924 15.8959 0.176836 12.6787C0.312063 9.70517 0.809879 8.09285 1.22596 7.01548C1.78025 5.59188 2.44153 4.57693 3.507 3.507C4.57396 2.44004 5.58891 1.77728 7.014 1.22596C8.08839 0.806907 9.70369 0.312063 12.6772 0.176836C15.8929 0.0297203 16.8589 0 24.9993 0C33.1426 0 34.1056 0.0326924 37.3228 0.176836C40.2963 0.312063 41.9086 0.809879 42.986 1.22596C44.4096 1.77728 45.4246 2.44004 46.493 3.507C47.5614 4.57396 48.2198 5.59039 48.774 7.014C49.1931 8.08839 49.6879 9.70369 49.8232 12.6772C49.9703 15.8944 50 16.8574 50 25.0007C50 33.1411 49.9703 34.1071 49.8232 37.3243C49.6879 40.2978 49.1901 41.9131 48.774 42.9875C48.2198 44.4111 47.56 45.426 46.493 46.493C45.426 47.56 44.4096 48.2198 42.986 48.774C41.9116 49.1931 40.2963 49.6879 37.3228 49.8232C34.1085 49.9703 33.1426 50 24.9993 50C16.8589 50 15.8929 49.9718 12.6787 49.8232Z" fill="url(#paint0_radial_225_2581)"/>
<path d="M12.6787 49.8232C9.70517 49.6879 8.08987 49.1931 7.01548 48.774C5.59188 48.2198 4.57693 47.56 3.50849 46.493C2.44004 45.426 1.77876 44.4111 1.22745 42.9875C0.808393 41.9131 0.31355 40.2978 0.178322 37.3243C0.0297203 34.11 0 33.1456 0 25.0022C0 16.8589 0.0326924 15.8959 0.176836 12.6787C0.312063 9.70517 0.809879 8.09285 1.22596 7.01548C1.78025 5.59188 2.44153 4.57693 3.507 3.507C4.57396 2.44004 5.58891 1.77728 7.014 1.22596C8.08839 0.806907 9.70369 0.312063 12.6772 0.176836C15.8929 0.0297203 16.8589 0 24.9993 0C33.1426 0 34.1056 0.0326924 37.3228 0.176836C40.2963 0.312063 41.9086 0.809879 42.986 1.22596C44.4096 1.77728 45.4246 2.44004 46.493 3.507C47.5614 4.57396 48.2198 5.59039 48.774 7.014C49.1931 8.08839 49.6879 9.70369 49.8232 12.6772C49.9703 15.8944 50 16.8574 50 25.0007C50 33.1411 49.9703 34.1071 49.8232 37.3243C49.6879 40.2978 49.1901 41.9131 48.774 42.9875C48.2198 44.4111 47.56 45.426 46.493 46.493C45.426 47.56 44.4096 48.2198 42.986 48.774C41.9116 49.1931 40.2963 49.6879 37.3228 49.8232C34.1085 49.9703 33.1426 50 24.9993 50C16.8589 50 15.8929 49.9718 12.6787 49.8232Z" fill="url(#paint1_radial_225_2581)"/>
<path d="M18.8612 25.1069C18.8612 21.6875 21.6324 18.9147 25.0519 18.9147C28.4714 18.9147 31.2442 21.6875 31.2442 25.1069C31.2442 28.5264 28.4714 31.2992 25.0519 31.2992C21.6324 31.2992 18.8612 28.5264 18.8612 25.1069ZM15.5138 25.1069C15.5138 30.3749 19.784 34.6451 25.0519 34.6451C30.3199 34.6451 34.5901 30.3749 34.5901 25.1069C34.5901 19.839 30.3199 15.5688 25.0519 15.5688C19.784 15.5688 15.5138 19.8387 15.5138 25.1069ZM32.7388 15.1906C32.7386 15.6315 32.8692 16.0625 33.114 16.4291C33.3587 16.7958 33.7067 17.0816 34.114 17.2505C34.5212 17.4194 34.9694 17.4637 35.4018 17.3779C35.8342 17.292 36.2315 17.0799 36.5433 16.7683C36.8552 16.4567 37.0677 16.0596 37.1538 15.6272C37.24 15.1949 37.196 14.7467 37.0275 14.3393C36.859 13.9319 36.5734 13.5837 36.2069 13.3386C35.8405 13.0936 35.4096 12.9627 34.9687 12.9625C34.3778 12.9628 33.8102 13.1976 33.3923 13.6153C32.9743 14.0331 32.7393 14.5997 32.7388 15.1906ZM17.5475 40.2269C15.7365 40.1444 14.7522 39.8427 14.098 39.5879C13.2308 39.2503 12.612 38.8481 11.9615 38.1985C11.3109 37.5488 10.9082 36.9306 10.572 36.0633C10.317 35.4095 10.0154 34.4249 9.93304 32.6139C9.84299 30.6559 9.82501 30.0677 9.82501 25.1072C9.82501 20.1468 9.84447 19.5602 9.93304 17.6006C10.0155 15.7896 10.3194 14.8069 10.572 14.1511C10.9097 13.2839 11.3118 12.6651 11.9615 12.0145C12.6111 11.364 13.2293 10.9613 14.098 10.6251C14.7519 10.3701 15.7365 10.0685 17.5475 9.98613C19.5055 9.89608 20.0937 9.8781 25.0519 9.8781C30.0102 9.8781 30.5989 9.89727 32.5585 9.98643C34.3695 10.0689 35.3522 10.3728 36.008 10.6254C36.8753 10.9616 37.494 11.3652 38.1446 12.0148C38.7952 12.6645 39.1964 13.2842 39.534 14.1514C39.789 14.8053 40.0907 15.7899 40.173 17.6009C40.2631 19.5605 40.2811 20.1471 40.2811 25.1075C40.2811 30.068 40.2631 30.6545 40.173 32.6142C40.0906 34.4252 39.7874 35.4095 39.534 36.0636C39.1964 36.9309 38.7943 37.5497 38.1446 38.1988C37.4949 38.8478 36.8753 39.2506 36.008 39.5882C35.3542 39.8432 34.3695 40.1448 32.5585 40.2272C30.6006 40.3172 30.0124 40.3352 25.0519 40.3352C20.0914 40.3352 19.5049 40.3169 17.5475 40.2269ZM17.3937 6.64423C15.4163 6.73428 14.0651 7.04783 12.885 7.50701C11.6637 7.9812 10.6283 8.61736 9.59453 9.64955C8.5607 10.6817 7.92618 11.7172 7.45199 12.94C6.99281 14.1208 6.67926 15.4713 6.58921 17.4488C6.49767 19.4293 6.47672 20.0625 6.47672 25.1069C6.47672 30.1514 6.49767 30.7846 6.58921 32.7651C6.67926 34.7427 6.99281 36.0931 7.45199 37.2739C7.92618 38.4952 8.56085 39.5326 9.59453 40.5643C10.6282 41.5961 11.6622 42.2314 12.885 42.7069C14.0673 43.1661 15.4163 43.4796 17.3937 43.5697C19.3753 43.6597 20.0075 43.6822 25.0519 43.6822C30.0964 43.6822 30.7295 43.6612 32.7101 43.5697C34.6877 43.4796 36.038 43.1661 37.2188 42.7069C38.4402 42.2314 39.4755 41.5965 40.5093 40.5643C41.5431 39.5322 42.1763 38.4952 42.6519 37.2739C43.111 36.0931 43.4261 34.7426 43.5146 32.7651C43.6047 30.7831 43.6256 30.1514 43.6256 25.1069C43.6256 20.0625 43.6047 19.4293 43.5146 17.4488C43.4246 15.4712 43.111 14.1201 42.6519 12.94C42.1763 11.7187 41.5415 10.6834 40.5093 9.64955C39.4771 8.61573 38.4402 7.9812 37.2203 7.50701C36.038 7.04783 34.6876 6.7328 32.7116 6.64423C30.7307 6.55373 30.0978 6.53174 25.0542 6.53174C20.0105 6.53174 19.3753 6.55269 17.3937 6.64423Z" fill="white"/>
<defs>
<radialGradient id="paint0_radial_225_2581" cx="0" cy="0" r="1" gradientUnits="userSpaceOnUse" gradientTransform="translate(3.23595 48.9047) scale(63.4814)">
<stop offset="0.09" stop-color="#FA8F21"/>
<stop offset="0.78" stop-color="#D82D7E"/>
</radialGradient>
<radialGradient id="paint1_radial_225_2581" cx="0" cy="0" r="1" gradientUnits="userSpaceOnUse" gradientTransform="translate(34.6333 47.2992) scale(55.8643)">
<stop offset="0.64" stop-color="#8C3AAA" stop-opacity="0"/>
<stop offset="1" stop-color="#8C3AAA"/>
</radialGradient>
</defs>
</svg>
