<svg width="12" height="17" viewBox="0 0 12 17" fill="none" xmlns="http://www.w3.org/2000/svg">
<path d="M0.772727 17H11.0758C11.5025 17 11.8485 16.654 11.8485 16.2273V7.4697C11.8485 7.04295 11.5025 6.69697 11.0758 6.69697H10.303V4.37879C10.303 1.96432 8.33871 0 5.92424 0C3.50978 0 1.54551 1.96432 1.54551 4.37879V6.69697H0.772727C0.345976 6.69697 0 7.04295 0 7.4697V16.2273C0 16.654 0.345976 17 0.772727 17ZM3.09096 4.37879C3.09096 2.81649 4.36199 1.54545 5.92424 1.54545C7.48654 1.54545 8.75758 2.81649 8.75758 4.37879V6.69697H3.09096V4.37879Z" fill="black" fill-opacity="0.3"/>
</svg>
