<svg width="22" height="24" viewBox="0 0 22 24" fill="none" xmlns="http://www.w3.org/2000/svg">
<path d="M15.0564 0.544923C14.8363 0.634767 14.8183 0.724611 14.6251 2.58438C14.423 4.56094 14.4275 4.57442 14.7105 4.71367C14.8273 4.76758 14.9037 4.77207 15.0249 4.74063C15.3484 4.65977 15.3484 4.65078 15.5505 2.6877C15.7078 1.15586 15.7257 0.895314 15.6718 0.774025C15.5775 0.544923 15.308 0.446095 15.0564 0.544923Z" fill="black"/>
<path d="M8.09349 3.57712C7.75208 3.67146 7.514 3.80173 7.29388 4.02634C7.13665 4.17907 6.96146 4.49802 6.42689 5.58513C6.06302 6.33083 5.24095 7.99743 4.60306 9.2822L3.44857 11.6181L2.32103 12.3818C1.49896 12.9388 1.12611 13.2174 0.937435 13.424C-0.00592481 14.4527 -0.0688154 15.9531 0.775716 17.139C1.14408 17.6511 1.66068 18.033 2.25814 18.2261C2.55013 18.3205 2.71634 18.3474 3.09368 18.3519C3.63724 18.3564 3.92025 18.298 4.39642 18.0779C4.71536 17.9342 4.73333 17.9297 4.79173 18.006C4.82318 18.0509 5.55091 19.1156 6.40443 20.3779C8.07552 22.8486 8.23724 23.0508 8.74935 23.2888C9.6388 23.7066 10.7259 23.3158 11.1527 22.4218C11.2829 22.1478 11.2919 22.0939 11.2919 21.6357C11.2919 21.1955 11.2785 21.1146 11.1751 20.8945C11.1077 20.7597 10.407 19.6906 9.61634 18.5226C8.82572 17.3592 8.18783 16.4023 8.19681 16.4023C8.24173 16.4023 13.821 15.9531 14.3915 15.9037C15.1283 15.8408 15.3663 15.7509 15.7167 15.4275C16.2019 14.9783 16.4355 14.3359 16.4355 13.4375C16.4355 12.3054 16.121 11.1285 15.4427 9.71794C14.131 6.97771 11.9523 4.63278 9.96673 3.81071C9.28392 3.52771 8.59661 3.44235 8.09349 3.57712ZM9.13568 4.52048C9.55794 4.62829 10.3486 5.04607 10.8876 5.44587C12.7923 6.8654 14.7374 9.72692 15.29 11.9146C15.5415 12.9074 15.5415 13.6845 15.29 14.2416C15.1462 14.556 14.9935 14.7177 14.7105 14.8615C14.423 15.0052 14.1669 15.0052 13.7087 14.8525C11.0269 13.9541 7.75208 9.39001 7.55443 6.27243C7.50951 5.49079 7.64427 5.00114 7.98568 4.71814C8.30013 4.4531 8.63704 4.3947 9.13568 4.52048ZM7.11419 8.5365C7.96322 10.9488 9.89036 13.5677 11.7906 14.884C12.0601 15.0726 12.1095 15.1265 12.0466 15.149C12.0017 15.167 11.53 15.2119 10.9999 15.2523C10.4699 15.2927 9.4097 15.3736 8.64154 15.4365C7.87787 15.4949 7.15911 15.5488 7.05579 15.5578L6.85814 15.5668L5.6138 13.7295L4.36497 11.8922L5.34876 9.89314C5.89232 8.79255 6.4179 7.70993 6.52122 7.49431L6.7054 7.0945L6.82669 7.58415C6.89408 7.84919 7.02435 8.28044 7.11419 8.5365ZM4.86361 14.309C5.44759 15.1715 5.93275 15.8902 5.93724 15.9127C5.94173 15.9306 5.51048 16.2451 4.9804 16.6045C3.84837 17.3726 3.64622 17.458 3.0263 17.4265C2.70736 17.4086 2.59954 17.3816 2.31204 17.2424C1.42259 16.7976 0.923958 15.7285 1.20247 14.8345C1.39564 14.2146 1.58431 14.0259 2.7972 13.1949C3.59681 12.6513 3.70013 12.5974 3.74505 12.6648C3.7765 12.7052 4.27962 13.4465 4.86361 14.309ZM8.664 18.7877C9.51751 20.05 10.2542 21.1551 10.2992 21.2449C10.4025 21.447 10.4115 21.8109 10.3126 21.9996C10.2003 22.2197 9.96224 22.4218 9.72865 22.4892C9.34681 22.6015 8.98744 22.4623 8.7179 22.0939C8.62357 21.9681 7.86439 20.8541 7.02884 19.6187C5.87884 17.9252 5.52396 17.3681 5.56888 17.3412C5.60482 17.3232 5.89681 17.1256 6.21576 16.9054C6.67396 16.5865 6.83568 16.5011 6.95697 16.4967H7.11419L8.664 18.7877Z" fill="black"/>
<path d="M10.416 7.86711C10.097 7.90754 9.87241 7.97942 9.54898 8.15012C9.15367 8.35676 9.04585 8.66672 9.27046 8.93625C9.45464 9.15188 9.5939 9.15637 10.0207 8.95871C10.3486 8.81047 10.4339 8.78801 10.7304 8.78801C11.3054 8.78801 11.7546 9.06204 12.0376 9.58313C12.1769 9.84368 12.1904 9.89758 12.1904 10.248C12.1904 10.7466 12.0691 11.0072 11.6513 11.4294C11.3548 11.7214 11.3503 11.7394 11.3728 11.9146C11.4177 12.2425 11.7097 12.4267 12.0017 12.3189C12.1769 12.2515 12.6037 11.8427 12.7744 11.5732C13.0035 11.2183 13.1158 10.8589 13.1427 10.4052C13.237 8.87786 11.9523 7.68293 10.416 7.86711Z" fill="black"/>
<path d="M20.0517 3.86465C19.854 3.94551 16.8577 5.94453 16.7724 6.05234C16.6376 6.22305 16.6556 6.48809 16.8083 6.64082C16.9071 6.74414 16.97 6.7666 17.1452 6.7666C17.3429 6.76211 17.4417 6.7082 18.8837 5.76035C19.7237 5.20781 20.4649 4.70469 20.5323 4.6418C20.9052 4.29141 20.5233 3.67598 20.0517 3.86465Z" fill="black"/>
<path d="M17.6933 8.81504C17.4193 8.92285 17.3294 9.32266 17.5271 9.55625C17.6259 9.67305 17.7203 9.69551 19.4497 10.0055C20.447 10.1896 21.3499 10.3379 21.4578 10.3379C21.615 10.3379 21.6779 10.3109 21.7857 10.2076C21.9923 9.99648 21.9474 9.62363 21.6958 9.48887C21.6329 9.45293 17.8999 8.76113 17.8281 8.77012C17.8146 8.77012 17.7562 8.79258 17.6933 8.81504Z" fill="black"/>
</svg>
