<svg width="22" height="24" viewBox="0 0 22 24" fill="none" xmlns="http://www.w3.org/2000/svg">
<path d="M7.74217 0.824966C7.31092 0.974966 6.99217 1.21872 6.75779 1.57497C6.5656 1.8609 6.51404 2.0109 6.45779 2.39059C6.39217 2.81715 6.50935 2.99997 6.84217 2.99997C7.05779 2.99997 7.18435 2.84997 7.24529 2.52184C7.32967 2.06247 7.52185 1.79997 7.90623 1.62184C8.11717 1.5234 8.12185 1.5234 13.9297 1.5234C18.7344 1.5234 19.775 1.53278 19.925 1.58903C20.164 1.6734 20.464 1.94528 20.5672 2.17965C20.6515 2.35778 20.6562 2.73278 20.6562 10.5C20.6562 18.3234 20.6515 18.6422 20.5672 18.8203C20.4172 19.139 20.0047 19.4531 19.7328 19.4531C19.6859 19.4531 19.5687 19.4765 19.4703 19.5047C19.3297 19.5422 19.2734 19.589 19.2219 19.7156C19.1656 19.8562 19.1656 19.8984 19.2219 20.039C19.3015 20.2312 19.4187 20.2687 19.8031 20.2406C20.164 20.2172 20.6375 19.9875 20.914 19.7109C21.0359 19.5937 21.2 19.3547 21.2797 19.1812L21.4297 18.8672V10.5V2.13278L21.2797 1.81872C21.0922 1.42028 20.7828 1.1109 20.3844 0.923405L20.0703 0.773403L14 0.764029C8.8531 0.759342 7.90154 0.764029 7.74217 0.824966Z" fill="black"/>
<path d="M4.74219 3.82503C4.31563 3.97503 3.99219 4.21878 3.75781 4.57034C3.40625 5.10003 3.43438 4.59846 3.41563 11.2032C3.41094 14.4657 3.41563 17.2032 3.42969 17.2875C3.47188 17.5078 3.60313 17.625 3.81875 17.625C3.94531 17.625 4.02969 17.5922 4.1 17.5172L4.20313 17.4094L4.2125 11.4141C4.22656 5.42815 4.22656 5.41409 4.325 5.20315C4.45156 4.93596 4.63906 4.74846 4.90625 4.6219C5.11719 4.52346 5.12188 4.52346 10.9297 4.52346C15.7344 4.52346 16.775 4.53284 16.925 4.58909C17.1641 4.67346 17.4641 4.94534 17.5672 5.17971C17.6516 5.35784 17.6562 5.73284 17.6562 13.5C17.6562 21.3235 17.6516 21.6422 17.5672 21.8203C17.1688 22.6782 15.9734 22.6641 15.575 21.7969C15.4859 21.6047 15.4766 21.4735 15.4531 20.3907C15.425 19.0641 15.4203 19.0313 15.1109 18.8438C14.9656 18.75 14.8156 18.75 7.94844 18.75H0.935938L0.78125 18.8578C0.692188 18.9141 0.579688 19.036 0.528125 19.125C0.434375 19.2797 0.429688 19.3641 0.429688 20.461C0.429688 21.3188 0.448438 21.6938 0.495313 21.8672C0.664063 22.4766 1.14219 22.9782 1.74219 23.175C1.95781 23.2453 2.61875 23.25 9.52344 23.2407L17.0703 23.2266L17.3844 23.0766C17.7828 22.8891 18.0922 22.5797 18.2797 22.1813L18.4297 21.8672V13.5V5.13284L18.2797 4.81878C18.0922 4.42034 17.7828 4.11097 17.3844 3.92347L17.0703 3.77346L11 3.76409C5.85313 3.7594 4.90156 3.76409 4.74219 3.82503ZM14.6563 20.4C14.6563 21.4828 14.7078 21.8672 14.8906 22.2282L15.0266 22.5L8.57188 22.4907C2.12188 22.4766 2.11719 22.4766 1.90625 22.3782C1.63906 22.2516 1.45156 22.0641 1.325 21.7969C1.24063 21.6094 1.22656 21.4782 1.2125 20.5407L1.19375 19.5H7.925H14.6563V20.4Z" fill="black"/>
<path d="M8.45467 7.55625C8.26249 7.70625 8.27186 8.09531 8.46874 8.20312C8.52499 8.23125 9.74374 8.25 11.7172 8.25H14.8766L14.975 8.14219C15.1156 7.99219 15.1109 7.73438 14.9703 7.60312L14.8625 7.5H11.6984C9.23749 7.5 8.51561 7.51406 8.45467 7.55625Z" fill="black"/>
<path d="M6.57973 9.80625C6.38755 9.95625 6.39692 10.3453 6.5938 10.4531C6.65005 10.4812 8.19692 10.5 10.7797 10.5H14.8766L14.9751 10.3922C15.1157 10.2422 15.111 9.98438 14.9704 9.85312L14.8626 9.75H10.761C7.55005 9.75 6.64067 9.76406 6.57973 9.80625Z" fill="black"/>
<path d="M6.57973 12.0562C6.38755 12.2062 6.39692 12.5953 6.5938 12.7031C6.65005 12.7312 8.19692 12.75 10.7797 12.75H14.8766L14.9751 12.6422C15.1157 12.4922 15.111 12.2344 14.9704 12.1031L14.8626 12H10.761C7.55005 12 6.64067 12.0141 6.57973 12.0562Z" fill="black"/>
<path d="M6.57973 14.3062C6.38755 14.4562 6.39692 14.8453 6.5938 14.9531C6.65005 14.9812 8.19692 15 10.7797 15H14.8766L14.9751 14.8922C15.1157 14.7422 15.111 14.4844 14.9704 14.3531L14.8626 14.25H10.761C7.55005 14.25 6.64067 14.2641 6.57973 14.3062Z" fill="black"/>
<path d="M6.57973 16.5562C6.38755 16.7062 6.39692 17.0953 6.5938 17.2031C6.65005 17.2312 7.93442 17.25 10.0297 17.25H13.3766L13.4751 17.1422C13.6157 16.9922 13.611 16.7344 13.4704 16.6031L13.3626 16.5H10.011C7.40005 16.5 6.64067 16.5141 6.57973 16.5562Z" fill="black"/>
</svg>
