<svg width="21" height="20" viewBox="0 0 21 20" fill="none" xmlns="http://www.w3.org/2000/svg">
<path d="M10.1562 0.078125C9.96871 0.191406 1.05465 8.8125 0.988242 8.94531C0.894492 9.125 0.914023 9.4375 1.0273 9.63281C1.19527 9.91406 1.34371 9.96094 2.11324 9.96094H2.76559V14.7148C2.76559 19.2695 2.76949 19.4805 2.8398 19.6328C2.87887 19.7227 2.97262 19.8359 3.04293 19.8867L3.17574 19.9805L5.77731 19.9922L8.37496 20L8.50777 19.9141C8.67965 19.7969 8.77731 19.6562 8.82027 19.4688C8.83981 19.3867 8.85934 18.1172 8.85934 16.6484V13.9844H10.5H12.1406V16.6484C12.1406 18.1172 12.1601 19.3867 12.1796 19.4688C12.2226 19.6562 12.3203 19.7969 12.4921 19.9141L12.625 20L15.2226 19.9922L17.8242 19.9805L17.957 19.8867C18.0273 19.8359 18.1211 19.7227 18.1601 19.6328C18.2304 19.4805 18.2343 19.2695 18.2343 14.7188V9.96875L18.9297 9.95312C19.5625 9.94141 19.6328 9.93359 19.7578 9.85547C20.0351 9.68359 20.1601 9.23438 20.0117 8.94531C19.9453 8.8125 11.0312 0.191406 10.8437 0.078125C10.6679 -0.0273438 10.332 -0.0273438 10.1562 0.078125ZM14.9375 4.98828L19.3398 9.23828L18.6601 9.25781C17.8711 9.28125 17.7695 9.31641 17.6211 9.60938L17.5312 9.78125V14.5391V19.2969H15.207H12.8828V16.6289C12.8828 15.1641 12.8632 13.8945 12.8437 13.8125C12.8046 13.6367 12.7109 13.4961 12.5546 13.3828C12.4492 13.3008 12.4062 13.3008 10.5 13.3008C8.59371 13.3008 8.55074 13.3008 8.44527 13.3828C8.28902 13.4961 8.19527 13.6367 8.15621 13.8125C8.13668 13.8945 8.11715 15.1641 8.11715 16.6289V19.2969H5.79293H3.46871V14.5391V9.78125L3.38277 9.60938C3.23043 9.31641 3.12887 9.28125 2.3398 9.25781L1.66402 9.23828L6.06246 4.98828C8.48434 2.65234 10.4804 0.742188 10.5 0.742188C10.5195 0.742188 12.5195 2.65234 14.9375 4.98828Z" fill="black"/>
</svg>
