<svg width="20" height="19" viewBox="0 0 20 19" fill="none" xmlns="http://www.w3.org/2000/svg">
<path d="M12.2548 0.824329L10.4876 1.31277L10.3725 1.08245C10.3089 0.955376 10.2017 0.808445 10.1302 0.75285C9.84036 0.530468 9.88007 0.534439 7.68803 0.534439H5.66674L5.44039 0.653572C5.22595 0.764763 5.2061 0.768734 5.13859 0.709167C4.95989 0.546352 4.8487 0.53841 2.78373 0.534439C1.38988 0.534439 0.758478 0.546352 0.651258 0.582092C0.448733 0.641659 0.198554 0.856098 0.0873639 1.06657L0 1.22938V9.66794V18.1065L0.0873639 18.2693C0.198554 18.4798 0.448733 18.6942 0.651258 18.7538C0.758478 18.7895 1.38988 18.8014 2.78373 18.8014C4.8487 18.7975 4.95989 18.7895 5.13859 18.6267C5.2061 18.5672 5.22595 18.5711 5.44039 18.6823L5.66674 18.8014H7.68803C9.87213 18.8014 9.84036 18.8054 10.1263 18.587C10.1938 18.5354 10.301 18.3964 10.3645 18.2812L10.4837 18.0668L10.5035 11.6455L10.5234 5.22429L12.2667 11.7448C13.2237 15.3307 14.0338 18.3329 14.0656 18.4163C14.1927 18.7379 14.6176 19 15.0107 19C15.1418 19 18.4735 18.1144 18.8309 17.9834C19.1526 17.8682 19.4385 17.4473 19.4385 17.0939C19.4385 17.0224 18.4735 13.3611 17.2941 8.95712C15.6302 2.74634 15.1219 0.911694 15.0385 0.772705C14.8757 0.510612 14.6096 0.359713 14.28 0.347799C14.0497 0.339857 13.7995 0.399424 12.2548 0.824329ZM14.4548 1.06657C14.5064 1.11819 14.566 1.22938 14.5898 1.31277C14.6096 1.40014 15.5706 4.97809 16.7183 9.26686C18.3147 15.2434 18.7952 17.0939 18.7713 17.1693C18.7515 17.2249 18.6959 17.2964 18.6403 17.3361C18.5887 17.3719 17.7349 17.622 16.7461 17.8921C14.971 18.3726 14.9472 18.3765 14.8161 18.313C14.7049 18.2614 14.6692 18.2137 14.6215 18.039C14.5858 17.9238 13.6486 14.4213 12.5328 10.2557C10.5988 3.03623 10.5035 2.67089 10.5035 2.34129C10.5035 2.05537 10.5154 1.9958 10.575 1.97594C10.7616 1.90049 14.153 0.979202 14.2483 0.975231C14.3158 0.97126 14.3952 1.007 14.4548 1.06657ZM4.80502 1.26909L4.90429 1.3644V9.66794V17.9715L4.80502 18.0668L4.70971 18.1661H2.77182C0.726709 18.1621 0.762449 18.1661 0.663172 17.9794C0.595663 17.8563 0.595663 1.47956 0.663172 1.35645C0.762449 1.16981 0.726709 1.17378 2.77182 1.16981H4.70971L4.80502 1.26909ZM9.73711 1.26512L9.8483 1.36043V9.66794V17.9755L9.73711 18.0708L9.62592 18.1661H7.70788C5.82559 18.1661 5.78588 18.1661 5.68263 18.0827L5.57938 18.0033V9.66794V1.33263L5.68263 1.25321C5.78588 1.16981 5.82559 1.16981 7.70788 1.16981H9.62592L9.73711 1.26512Z" fill="black"/>
<path d="M12.906 3.17124C12.4017 3.31023 11.9411 3.43333 11.8815 3.44922C11.5082 3.54055 11.544 4.06871 11.9252 4.06871C11.9927 4.06871 12.5089 3.9456 13.0728 3.79073C14.1808 3.4929 14.2364 3.4651 14.2364 3.21492C14.2364 3.05608 14.0855 2.91312 13.9226 2.92106C13.867 2.92503 13.4064 3.03623 12.906 3.17124Z" fill="black"/>
<path d="M13.462 4.87087C12.9815 5.00191 12.493 5.13693 12.3779 5.1687C12.1674 5.22827 12.0522 5.35137 12.0522 5.51816C12.0522 5.60949 12.2667 5.81599 12.362 5.81599C12.4057 5.81599 12.914 5.68891 13.4898 5.53801C14.3634 5.30372 14.5501 5.24415 14.6255 5.15679C14.6732 5.10119 14.7129 5.01383 14.7129 4.9622C14.7129 4.84307 14.562 4.67231 14.4349 4.64849C14.3793 4.64055 13.9425 4.73982 13.462 4.87087Z" fill="black"/>
<path d="M15.7652 13.774C15.241 13.913 14.7645 14.0361 14.7049 14.052C14.4548 14.1116 14.3634 14.3697 14.5183 14.5683C14.5818 14.6517 14.6335 14.6715 14.7645 14.6715C14.9988 14.6715 16.9168 14.1473 17.0161 14.056C17.1908 13.8972 17.0439 13.5159 16.8096 13.5239C16.758 13.5239 16.2894 13.639 15.7652 13.774Z" fill="black"/>
<path d="M16.1226 15.5253C14.975 15.835 14.9114 15.8668 14.9114 16.109C14.9114 16.2441 15.0663 16.4188 15.1854 16.4188C15.3125 16.4188 17.3457 15.8628 17.441 15.8033C17.6316 15.6762 17.58 15.3506 17.3497 15.2672C17.2266 15.2195 17.3695 15.1878 16.1226 15.5253Z" fill="black"/>
<path d="M1.55268 3.0402C1.41369 3.14742 1.40972 3.38171 1.54077 3.50481C1.6321 3.59218 1.65593 3.59218 2.76783 3.59218C4.03064 3.59218 4.04255 3.58821 4.09418 3.32612C4.11403 3.2189 4.09815 3.17919 3.99887 3.07594L3.87974 2.9568H2.76783C1.70755 2.9568 1.65593 2.96078 1.55268 3.0402Z" fill="black"/>
<path d="M1.64802 4.77159C1.43358 4.85101 1.37402 5.13693 1.5408 5.2918C1.63214 5.37917 1.65596 5.37917 2.76787 5.37917C4.03067 5.37917 4.04259 5.3752 4.09421 5.1131C4.11407 5.00589 4.09818 4.96617 3.99891 4.86293L3.87977 4.74379L2.79169 4.74776C2.19603 4.74776 1.67979 4.75968 1.64802 4.77159Z" fill="black"/>
<path d="M1.53683 14.0481C1.42166 14.1712 1.42166 14.3935 1.53285 14.4968C1.61228 14.5683 1.69964 14.5722 2.74404 14.5841L3.8758 14.5961L3.99493 14.473C4.09818 14.3697 4.11406 14.33 4.09421 14.2228C4.04258 13.9607 4.03067 13.9567 2.76389 13.9567H1.62022L1.53683 14.0481Z" fill="black"/>
<path d="M1.53677 15.835C1.4097 15.9701 1.41764 16.1885 1.55266 16.2957C1.65591 16.3751 1.70753 16.3791 2.76781 16.3791H3.87972L3.99885 16.2599C4.09813 16.1567 4.11401 16.117 4.09415 16.0098C4.04253 15.7477 4.03062 15.7437 2.76384 15.7437H1.62017L1.53677 15.835Z" fill="black"/>
<path d="M6.54437 2.99651C6.35773 3.07197 6.31802 3.342 6.47289 3.4929L6.5682 3.59218H7.70393H8.83967L8.93497 3.4929C9.09382 3.33406 9.05411 3.11168 8.84761 3.00446C8.74436 2.94886 6.67939 2.94092 6.54437 2.99651Z" fill="black"/>
<path d="M6.54442 4.7835C6.35778 4.85895 6.3141 5.14884 6.465 5.2918C6.55634 5.37917 6.58016 5.37917 7.70001 5.37917H8.83972L8.93502 5.27989C9.09387 5.12105 9.05416 4.89867 8.84766 4.79145C8.74441 4.73585 6.67944 4.72791 6.54442 4.7835Z" fill="black"/>
<path d="M6.46094 14.0481C6.31401 14.2029 6.34975 14.4372 6.53639 14.5325C6.68332 14.608 8.70858 14.6199 8.84757 14.5444C9.05406 14.4372 9.09378 14.2148 8.93493 14.056L8.83963 13.9567H7.69198H6.54433L6.46094 14.0481Z" fill="black"/>
<path d="M6.47685 15.8271C6.34978 15.9264 6.33787 16.1249 6.44906 16.2639L6.52451 16.3592L7.61259 16.3711C8.20825 16.3791 8.7364 16.3711 8.78406 16.3592C9.02629 16.2997 9.10969 16.0137 8.93496 15.843L8.83965 15.7437H7.71186C6.63173 15.7437 6.5801 15.7477 6.47685 15.8271Z" fill="black"/>
</svg>
