<svg width="21" height="18" viewBox="0 0 21 18" fill="none" xmlns="http://www.w3.org/2000/svg">
<path d="M2.27733 0.777344L2.17967 0.871094V1.77344V2.67188H1.47655C0.730456 2.67188 0.617175 2.69531 0.542956 2.85547C0.511706 2.92188 0.499987 4.91406 0.499987 10C0.499987 17.5234 0.492175 17.2266 0.675768 17.2969C0.761706 17.3281 20.2383 17.3281 20.3242 17.2969C20.5078 17.2266 20.5 17.5234 20.5 10C20.5 4.91406 20.4883 2.92188 20.457 2.85547C20.3828 2.69531 20.2695 2.67188 19.5234 2.67188H18.8203V1.77344V0.871094L18.7226 0.777344C18.6055 0.65625 18.5039 0.652344 17.4492 0.757812C16.0937 0.894531 15.0547 1.08203 13.918 1.39844C12.9258 1.67578 12.2265 1.92188 11.0195 2.42578L10.5039 2.63672L9.76952 2.33594C7.51561 1.41016 5.69921 0.957031 3.35546 0.738281C2.46483 0.65625 2.39061 0.660156 2.27733 0.777344ZM4.21092 1.5C5.91405 1.71875 7.64842 2.1875 9.3867 2.89844L10.1289 3.20312L10.1406 9.84766L10.1484 16.4922L9.53514 16.2383C7.6367 15.4609 5.76952 14.9883 3.7578 14.7812C3.34374 14.7383 2.96483 14.7031 2.92186 14.7031C2.84374 14.7031 2.84374 14.7031 2.84374 8.03906V1.37109L3.22655 1.39844C3.43358 1.41406 3.87889 1.46094 4.21092 1.5ZM18.1562 8.03516V14.6914L17.6406 14.7383C15.4648 14.9336 13.4258 15.4297 11.4648 16.2383L10.8515 16.4922L10.8594 9.84766L10.8711 3.20312L11.6133 2.89844C13.3633 2.18359 15.0976 1.71484 16.789 1.50391C17.625 1.40234 17.668 1.39453 17.9336 1.39062L18.1562 1.38281V8.03516ZM2.17967 9.21875C2.17967 13.1523 2.19139 15.125 2.21874 15.1719C2.28905 15.3008 2.3828 15.3242 3.08202 15.3867C4.48046 15.5117 5.53905 15.6836 6.6328 15.9688C7.16405 16.1055 8.20311 16.4336 8.56639 16.5742L8.7617 16.6523L4.96483 16.6562H1.16405V9.99609V3.33594H1.67186H2.17967V9.21875ZM19.8359 9.99609V16.6562H16.039C13.9531 16.6562 12.2539 16.6484 12.2617 16.6406C12.3008 16.6016 13.4687 16.2188 13.9765 16.0781C15.289 15.7109 16.3633 15.5195 17.8984 15.3867C18.625 15.3203 18.7148 15.3008 18.7812 15.1719C18.8086 15.125 18.8203 13.1523 18.8203 9.21875V3.33594H19.3281H19.8359V9.99609Z" fill="black"/>
</svg>
