<svg width="23" height="16" viewBox="0 0 23 16" fill="none" xmlns="http://www.w3.org/2000/svg">
<path d="M10.9199 0.226933C9.63947 0.415996 8.61681 1.29256 8.22579 2.54295C8.084 3.00701 8.084 3.87928 8.22579 4.34764C8.66407 5.75271 9.90587 6.66795 11.3797 6.67225C11.9469 6.67225 12.2949 6.5949 12.8106 6.34568C13.4981 6.01482 13.9621 5.55076 14.3145 4.85467C14.5766 4.33475 14.6496 3.95662 14.6281 3.3035C14.6109 2.8824 14.5852 2.71053 14.4906 2.43553C14.3231 1.94568 14.0695 1.53748 13.6957 1.16365C13.1672 0.635136 12.5442 0.330058 11.7879 0.226933C11.4098 0.175371 11.2895 0.175371 10.9199 0.226933ZM12.1875 1.03904C12.9609 1.30115 13.5754 1.9156 13.8246 2.68045C13.9578 3.08865 13.9707 3.77185 13.8461 4.13279C13.5324 5.06092 12.8965 5.66248 11.9813 5.89881C11.152 6.10935 10.2754 5.88162 9.62657 5.27576C9.28712 4.96209 9.09376 4.66131 8.93478 4.21014C8.78868 3.79334 8.78009 3.14021 8.91759 2.71482C9.18829 1.86404 9.99181 1.12928 10.834 0.957402C11.182 0.888652 11.8652 0.927324 12.1875 1.03904Z" fill="black"/>
<path d="M17.6016 2.4785C16.7336 2.67616 15.9774 3.36796 15.7067 4.21874C15.5992 4.5453 15.5777 5.24139 15.6637 5.55077C15.7797 5.97186 16.0117 6.36717 16.3254 6.68944C16.6777 7.04178 16.9141 7.19217 17.3481 7.33827C17.9969 7.55741 18.65 7.50585 19.3031 7.18788C21.0133 6.34139 21.1723 3.95233 19.591 2.86952C19.0238 2.4828 18.2504 2.33241 17.6016 2.4785ZM18.6801 3.21327C19.0067 3.3121 19.2301 3.45389 19.4879 3.7246C20.343 4.62694 20.0508 6.0578 18.9035 6.59061C18.1559 6.94295 17.1891 6.70233 16.6906 6.04491C16.4199 5.69256 16.3383 5.42616 16.334 4.92772C16.334 4.53241 16.3469 4.47655 16.4715 4.20585C16.6949 3.73319 17.1203 3.36366 17.6231 3.20467C17.868 3.12733 18.4051 3.13163 18.6801 3.21327Z" fill="black"/>
<path d="M4.32856 2.6547C3.68402 2.7922 3.09965 3.18752 2.73871 3.72462C2.05981 4.73869 2.19731 6.05353 3.06527 6.90861C3.51215 7.35119 4.24262 7.65627 4.86137 7.65627C5.93129 7.65627 6.96254 6.89142 7.2934 5.85158C7.4309 5.43048 7.42231 4.77736 7.27621 4.35627C7.12152 3.91369 6.92816 3.60861 6.59301 3.29494C5.98285 2.71486 5.14066 2.47853 4.32856 2.6547ZM5.61332 3.47541C6.12895 3.72033 6.44691 4.08556 6.6102 4.62267C6.86801 5.46486 6.44691 6.38009 5.62621 6.76681C5.07191 7.02462 4.32856 6.96877 3.83441 6.62502C3.57231 6.44884 3.29731 6.13517 3.18559 5.88166C2.73871 4.90197 3.22856 3.76759 4.2641 3.40236C4.46606 3.33361 4.59926 3.31642 4.92582 3.32931C5.27816 3.33791 5.3727 3.35939 5.61332 3.47541Z" fill="black"/>
<path d="M10.9844 7.12773C9.66953 7.25664 8.41055 7.80234 7.49102 8.64453L7.19883 8.91523L6.78203 8.71757C6.275 8.47695 5.92695 8.36953 5.41992 8.30078C3.40469 8.01718 1.38945 9.26328 0.727734 11.2012C0.551563 11.7168 0.5 12.1508 0.5 13.0703C0.5 13.9168 0.5 13.9211 0.620313 14.1488C0.70625 14.3164 0.796484 14.4152 0.951172 14.5098L1.15742 14.6387L3.33594 14.6516L5.51875 14.6644L5.54453 14.8363C5.5832 15.0855 5.70781 15.309 5.91406 15.4937C6.2793 15.8246 5.81953 15.7988 11.5 15.7988C17.1805 15.7988 16.7207 15.8246 17.0859 15.4937C17.3309 15.2746 17.4383 15.0426 17.4641 14.6945L17.4855 14.4066L19.6383 14.3937C21.168 14.3852 21.8254 14.3637 21.9027 14.3293C22.0918 14.2477 22.3367 14.007 22.4184 13.8223C22.4871 13.6762 22.5 13.5301 22.5 12.8082C22.5 11.893 22.4484 11.459 22.2723 10.9434C21.8254 9.63281 20.7855 8.61875 19.4707 8.20195C18.2805 7.82812 16.8926 7.9957 15.8656 8.63164L15.6551 8.76484L15.3887 8.53711C14.1727 7.50586 12.5184 6.97304 10.9844 7.12773ZM12.3852 7.89257C14.5336 8.26211 16.218 9.88203 16.6605 12.0047C16.7336 12.3656 16.7551 12.6406 16.768 13.5129C16.7895 14.6687 16.768 14.8578 16.5832 14.9996C16.4715 15.0898 16.45 15.0898 11.5 15.0898C6.58008 15.0898 6.52422 15.0898 6.4168 15.0039C6.23203 14.8578 6.21484 14.7203 6.23203 13.543C6.24492 12.6234 6.26211 12.3742 6.33945 12.0047C6.78203 9.89922 8.45352 8.275 10.5762 7.89687C11.0402 7.81523 11.9168 7.81093 12.3852 7.89257ZM19.0582 8.8207C20.3387 9.14726 21.3527 10.1656 21.6836 11.4547C21.7566 11.7426 21.7695 11.9316 21.7695 12.6836C21.7695 13.3152 21.7566 13.5816 21.718 13.6203C21.6793 13.659 21.1465 13.6719 19.5738 13.6719H17.4855L17.4598 12.9285C17.4211 11.8543 17.2578 11.1969 16.8023 10.316C16.6906 10.0969 16.4973 9.7789 16.3727 9.60703L16.1449 9.29336L16.2867 9.20312C17.043 8.73906 18.1387 8.58867 19.0582 8.8207ZM5.75078 9.0914C6.11602 9.18164 6.6875 9.42656 6.6875 9.48672C6.6875 9.49961 6.60586 9.62422 6.51133 9.77031C6.25781 10.1398 5.89258 10.9219 5.76367 11.373C5.59609 11.9488 5.52734 12.4988 5.52734 13.2508V13.9297H3.42617C1.63437 13.9297 1.3207 13.9211 1.27344 13.8652C1.23477 13.818 1.22617 13.5516 1.23906 12.8254C1.25625 11.9488 1.26914 11.8113 1.35508 11.5449C1.77617 10.2644 2.79023 9.33632 4.08789 9.05273C4.53047 8.9539 5.28242 8.97109 5.75078 9.0914Z" fill="black"/>
</svg>
