<svg width="21" height="20" viewBox="0 0 21 20" fill="none" xmlns="http://www.w3.org/2000/svg">
<path d="M9.34698 0.0429688C7.44464 0.277344 5.76495 0.976562 4.2298 2.17969C3.82355 2.5 2.86261 3.48438 2.5462 3.90625C1.50323 5.29688 0.850891 6.82031 0.589172 8.47656C0.48761 9.11719 0.48761 10.8828 0.589172 11.5234C0.909485 13.5508 1.83527 15.4219 3.24542 16.8984C4.78448 18.5078 6.65948 19.5039 8.87433 19.8906C9.55402 20.0078 10.9954 20.0352 11.7142 19.9414C16.3548 19.3594 19.9564 15.707 20.4603 11.0664C20.5228 10.5 20.4915 8.98437 20.4056 8.46094C19.6868 4.03125 16.1556 0.605469 11.7493 0.0585938C11.222 -0.00390625 9.82355 -0.015625 9.34698 0.0429688ZM11.9642 0.972656C13.8704 1.30859 15.4837 2.125 16.8392 3.43359C18.2923 4.83984 19.2298 6.65234 19.5501 8.67187C19.6478 9.29687 19.6478 10.6992 19.5501 11.3203C18.9173 15.3398 15.8431 18.4141 11.8275 19.0508C11.2025 19.1484 9.80011 19.1484 9.17902 19.0508C6.16339 18.5742 3.60089 16.6953 2.2962 14.0039C1.87042 13.1289 1.64386 12.4219 1.46808 11.4492C1.35089 10.7812 1.33917 9.3125 1.44855 8.65234C1.71808 7.05078 2.2962 5.70312 3.28448 4.39453C3.58917 3.99219 4.49152 3.08984 4.89386 2.78516C6.19855 1.80078 7.62433 1.1875 9.13214 0.960938C9.76495 0.867188 9.76495 0.867188 10.6556 0.878906C11.2962 0.886719 11.6048 0.910156 11.9642 0.972656Z" fill="black"/>
<path d="M10.1328 4.20703C9.58594 4.37109 9.25391 4.82031 9.25 5.39062C9.25 5.80078 9.33594 6.02344 9.60156 6.29297C10.1133 6.81641 10.8867 6.81641 11.4024 6.29297C11.5469 6.14453 11.6406 6.00781 11.6836 5.87891C11.7578 5.66797 11.7695 5.25 11.7109 5.03906C11.6055 4.66016 11.2461 4.3125 10.8477 4.20312C10.582 4.125 10.3828 4.12891 10.1328 4.20703ZM10.7773 5.15234C10.9336 5.30859 10.9336 5.5 10.7773 5.67187C10.6836 5.77734 10.6367 5.80078 10.5 5.80078C10.3633 5.80078 10.3164 5.77734 10.2227 5.67187C10.0664 5.5 10.0664 5.30859 10.2227 5.15234C10.3125 5.0625 10.3711 5.03906 10.5 5.03906C10.6289 5.03906 10.6875 5.0625 10.7773 5.15234Z" fill="black"/>
<path d="M8.95312 8.45312C8.84375 8.5625 8.82031 8.61719 8.82031 8.75C8.82031 8.88281 8.84375 8.9375 8.95312 9.04688L9.08594 9.17969H9.57812H10.0703V11.6602V14.1406H9.40625C8.66015 14.1406 8.55859 14.168 8.44531 14.3828C8.36328 14.543 8.39843 14.7461 8.53125 14.8906L8.64062 15H10.5H12.3594L12.4688 14.8906C12.6016 14.7461 12.6367 14.543 12.5547 14.3828C12.4414 14.168 12.3398 14.1406 11.5938 14.1406H10.9297V11.3633V8.58594L10.7969 8.45312L10.6641 8.32031H9.875H9.08594L8.95312 8.45312Z" fill="black"/>
</svg>
