<svg width="26" height="16" viewBox="0 0 26 16" fill="none" xmlns="http://www.w3.org/2000/svg">
<path d="M8.18555 0.607264C8.1123 0.675623 7.87305 1.11508 7.64844 1.57894C7.375 2.14535 7.19434 2.45785 7.11621 2.51156C7.02344 2.57504 5.37793 2.86312 5.08008 2.87289C5.06543 2.87289 4.98242 2.93148 4.89941 2.99984C4.77246 3.10726 4.74805 3.16097 4.74805 3.3514C4.74805 3.57113 4.74805 3.57601 5.5 4.33285C5.91016 4.75277 6.26172 5.13363 6.27637 5.18246C6.2959 5.23129 6.23242 5.7098 6.14453 6.24203C5.95898 7.31625 5.96875 7.48226 6.19824 7.63363C6.41797 7.78012 6.65723 7.70687 7.53125 7.24789C7.97559 7.01351 8.39551 6.81332 8.46387 6.79867C8.56152 6.77426 8.79102 6.8768 9.44043 7.21859C10.3975 7.7264 10.6367 7.78988 10.8613 7.6141C11.0664 7.45297 11.0713 7.2723 10.9053 6.30551C10.8223 5.82699 10.7539 5.35336 10.7539 5.26058C10.7539 5.10922 10.8223 5.02621 11.5059 4.36215C12.0723 3.80551 12.2627 3.59066 12.292 3.46859C12.3311 3.27328 12.2529 3.05355 12.1016 2.95101C12.0381 2.91195 11.5986 2.82406 11.1152 2.75082C9.96777 2.5848 9.98242 2.58969 9.86523 2.46762C9.81152 2.40902 9.57715 1.97933 9.35254 1.52035C9.1084 1.0223 8.88867 0.63656 8.81543 0.577967C8.62988 0.436365 8.3418 0.446131 8.18555 0.607264ZM9.34277 2.95101C9.54297 3.16097 9.82617 3.25375 10.6172 3.37094L11.3838 3.48324L10.8076 4.06918C10.1777 4.70394 10.0703 4.88461 10.0703 5.285C10.0703 5.49984 10.2021 6.3641 10.29 6.76937C10.3145 6.87191 10.2461 6.8475 9.57715 6.50082C8.86914 6.13949 8.82031 6.11996 8.51269 6.11996C8.20508 6.11996 8.15625 6.13949 7.47266 6.49594C7.07227 6.7059 6.75 6.85726 6.75 6.83773C6.75 6.8182 6.80859 6.44711 6.87695 6.01742C7.00391 5.24105 7.00391 5.2264 6.9209 4.95297C6.84277 4.70883 6.76953 4.61117 6.22754 4.07894L5.62207 3.48324L6.34961 3.3807C7.58496 3.20492 7.62402 3.17562 8.15137 2.12094L8.52246 1.38363L8.87402 2.10629C9.06934 2.50668 9.2793 2.88265 9.34277 2.95101Z" fill="black"/>
<path d="M16.9844 0.582954C16.9062 0.646431 16.6816 1.02729 16.4228 1.54975C16.1836 2.02338 15.9443 2.44819 15.8906 2.49702C15.8174 2.56538 15.5488 2.62397 14.8066 2.73139C14.2695 2.80952 13.7861 2.89252 13.7324 2.92182C13.4883 3.05366 13.4199 3.37104 13.581 3.62983C13.6299 3.71284 13.957 4.04975 14.3086 4.38178C14.6601 4.71381 14.9727 5.05073 15.0068 5.12885C15.0557 5.25092 15.041 5.41206 14.9141 6.18354C14.7187 7.32612 14.7187 7.37983 14.8994 7.56538C15.1387 7.80463 15.2852 7.77045 16.3008 7.24311C16.7891 6.9892 17.2285 6.77924 17.2773 6.77924C17.3213 6.77924 17.7607 6.9892 18.2539 7.24311C19.2647 7.77045 19.4258 7.80952 19.6553 7.57026C19.8311 7.38959 19.8262 7.22846 19.6357 6.14936C19.5527 5.68061 19.499 5.25092 19.5137 5.19233C19.5283 5.12885 19.8848 4.74311 20.2998 4.33295C21.0322 3.60542 21.0566 3.57612 21.0566 3.38081C21.0566 3.1562 20.9248 2.95112 20.7539 2.89252C20.6953 2.87788 20.2363 2.79975 19.7334 2.73139C19.1426 2.6435 18.7764 2.57026 18.6934 2.51655C18.6055 2.45795 18.4248 2.14545 18.1221 1.53999C17.8779 1.0517 17.6289 0.612251 17.5752 0.568306C17.4287 0.451118 17.1455 0.456001 16.9844 0.582954ZM17.6338 2.12104C18.1514 3.1562 18.2539 3.22456 19.5332 3.39057L20.1875 3.47846L19.6016 4.04487C19.2793 4.35249 18.9814 4.67963 18.9375 4.76752C18.7959 5.04096 18.7959 5.33881 18.9277 6.09565C18.9961 6.48139 19.0547 6.81831 19.0547 6.84272C19.0547 6.86225 18.7324 6.71088 18.3369 6.50092C17.6436 6.13959 17.5996 6.12006 17.2871 6.12006C16.9746 6.12006 16.9307 6.13471 16.2227 6.50092C15.8223 6.71088 15.4902 6.87202 15.4902 6.86225C15.4902 6.85249 15.5439 6.53999 15.6123 6.16401C15.6807 5.79292 15.7344 5.38764 15.7344 5.26069C15.7344 4.89448 15.5488 4.60151 14.9482 4.02045C14.6504 3.73237 14.416 3.49311 14.4258 3.48823C14.4307 3.47846 14.7139 3.43452 15.0508 3.39057C16.3496 3.20502 16.374 3.19038 16.8965 2.1601C17.1016 1.74995 17.2725 1.41792 17.2773 1.4228C17.2822 1.42768 17.4434 1.74018 17.6338 2.12104Z" fill="black"/>
<path d="M3.9375 8.41491C3.86914 8.48327 3.625 8.92272 3.39551 9.39635C3.13672 9.9237 2.92676 10.285 2.8584 10.329C2.77539 10.3876 1.11035 10.6757 0.832031 10.6854C0.817383 10.6854 0.734375 10.744 0.651367 10.8124C0.524414 10.9198 0.5 10.9735 0.5 11.1639C0.5 11.3837 0.5 11.3885 1.22754 12.121C1.63281 12.5262 1.97949 12.9169 2.00879 12.9852C2.04297 13.078 2.01367 13.3563 1.8916 14.0692C1.71094 15.119 1.71582 15.3046 1.94531 15.451C2.16016 15.5926 2.41406 15.5194 3.2832 15.0604C3.72754 14.826 4.14746 14.621 4.2207 14.6063C4.31836 14.5868 4.54297 14.6844 5.19727 15.0311C6.14941 15.5389 6.38379 15.6073 6.61328 15.4266C6.68652 15.368 6.75977 15.2508 6.77441 15.163C6.79395 15.0751 6.74023 14.621 6.65723 14.118C6.57422 13.6346 6.50586 13.161 6.50586 13.0682C6.50586 12.9217 6.58398 12.8339 7.25781 12.1698C7.87305 11.5692 8.01953 11.4032 8.04395 11.2616C8.08301 11.0565 7.98535 10.8319 7.81445 10.744C7.75586 10.7098 7.27246 10.6219 6.74023 10.5438C6.21289 10.4657 5.73438 10.3778 5.68066 10.3485C5.62207 10.3143 5.40234 9.93346 5.13867 9.40124C4.89453 8.91296 4.64062 8.46374 4.57227 8.40026C4.39648 8.24889 4.09863 8.25378 3.9375 8.41491ZM5.14844 10.8075C5.39258 11.0174 5.55371 11.0663 6.37891 11.1835L7.13574 11.2958L6.55469 11.8817C6.22754 12.2137 5.93945 12.5507 5.89551 12.6532C5.79297 12.8973 5.80762 13.2831 5.93945 14.0301C6.00293 14.3768 6.05176 14.6698 6.04688 14.6747C6.03711 14.6844 5.74414 14.538 5.39258 14.3475C4.32812 13.786 4.23047 13.786 3.2002 14.3231C2.81445 14.5233 2.50195 14.66 2.50195 14.6356C2.50195 14.6063 2.56055 14.2499 2.62891 13.8397C2.80957 12.7606 2.79492 12.7264 1.95996 11.8768L1.37402 11.2909L2.02344 11.203C3.30762 11.037 3.37598 10.9882 3.90332 9.93346L4.27441 9.19616L4.63086 9.93346C4.875 10.4462 5.03613 10.7098 5.14844 10.8075Z" fill="black"/>
<path d="M12.7168 8.37101C12.6533 8.41496 12.4043 8.85441 12.1455 9.36711C11.8525 9.94816 11.6426 10.3095 11.5791 10.3486C11.5205 10.3778 11.042 10.4657 10.5147 10.5439C9.50391 10.6952 9.37208 10.7441 9.25001 10.998C9.13282 11.2372 9.24024 11.4081 10.002 12.1601C10.4609 12.6142 10.7197 12.9071 10.7441 12.9999C10.7686 13.0976 10.7295 13.4638 10.6172 14.0937C10.5293 14.621 10.4658 15.0995 10.4854 15.1679C10.5 15.2314 10.5684 15.3388 10.6367 15.4071C10.8467 15.6171 11.0859 15.5585 12.0576 15.0409C12.5215 14.7919 12.9463 14.5917 13 14.5917C13.0537 14.5917 13.4785 14.7919 13.9424 15.0409C14.9141 15.5585 15.1533 15.6171 15.3633 15.4071C15.4316 15.3388 15.5 15.2314 15.5147 15.1679C15.5342 15.0995 15.4707 14.621 15.3828 14.0937C15.2705 13.4638 15.2315 13.0976 15.2559 12.9999C15.2803 12.9071 15.5391 12.6142 15.9981 12.1601C16.7598 11.4081 16.8672 11.2372 16.75 10.998C16.6279 10.7441 16.4961 10.6952 15.4854 10.5439C14.958 10.4657 14.4795 10.3778 14.4209 10.3486C14.3574 10.3095 14.1475 9.94816 13.8545 9.36711C13.5957 8.85441 13.3467 8.41496 13.2832 8.37101C13.2246 8.32707 13.0977 8.29289 13 8.29289C12.9024 8.29289 12.7754 8.32707 12.7168 8.37101ZM13.3418 9.91398C13.8545 10.9589 13.9717 11.037 15.2363 11.203L15.8809 11.2909L15.2754 11.9013C14.4502 12.7411 14.4453 12.7607 14.6992 14.1864C14.7481 14.4648 14.7871 14.6894 14.7774 14.6894C14.7725 14.6894 14.4746 14.5331 14.1182 14.3427C13.0586 13.7861 12.9414 13.7861 11.8818 14.3427C11.5254 14.5331 11.2275 14.6894 11.2227 14.6894C11.2129 14.6894 11.252 14.4648 11.3008 14.1864C11.5547 12.7607 11.5498 12.7411 10.7246 11.9013L10.1191 11.2909L10.7637 11.203C12.0283 11.037 12.1455 10.9589 12.6582 9.91398C12.8291 9.55754 12.9854 9.26945 13 9.26945C13.0147 9.26945 13.1709 9.55754 13.3418 9.91398Z" fill="black"/>
<path d="M21.4278 8.40038C21.3594 8.46386 21.1055 8.91308 20.8613 9.40136C20.5977 9.93358 20.378 10.3144 20.3194 10.3486C20.2656 10.3779 19.7871 10.4658 19.2598 10.5439C18.7276 10.6221 18.2442 10.71 18.1856 10.7441C18.0147 10.832 17.917 11.0566 17.9561 11.2617C17.9805 11.4033 18.127 11.5693 18.7422 12.1699C19.416 12.834 19.4942 12.9219 19.4942 13.0684C19.4942 13.1611 19.4258 13.6348 19.3428 14.1182C19.2598 14.6211 19.2061 15.0752 19.2256 15.1631C19.2403 15.251 19.3135 15.3682 19.3867 15.4268C19.6162 15.6074 19.8506 15.5391 20.8028 15.0312C21.4571 14.6846 21.6817 14.5869 21.7793 14.6064C21.8526 14.6211 22.2725 14.8262 22.7168 15.0605C23.586 15.5195 23.8399 15.5928 24.0547 15.4512C24.2842 15.3047 24.2891 15.1191 24.1084 14.0693C23.9863 13.3564 23.9571 13.0781 23.9912 12.9853C24.0205 12.917 24.3672 12.5264 24.7725 12.1211C25.5 11.3887 25.5 11.3838 25.5 11.1641C25.5 10.9736 25.4756 10.9199 25.3487 10.8125C25.2656 10.7441 25.1826 10.6855 25.168 10.6855C24.8799 10.6758 23.2246 10.3877 23.1367 10.3291C23.0635 10.2803 22.8682 9.93847 22.6045 9.39647C22.375 8.92284 22.1309 8.48339 22.0625 8.41503C21.9014 8.2539 21.6035 8.24413 21.4278 8.40038ZM22.1016 9.94335C22.624 10.9883 22.6973 11.0371 23.9766 11.2031L24.626 11.291L24.0401 11.8769C23.2051 12.7266 23.1905 12.7607 23.3711 13.8398C23.4395 14.25 23.4981 14.6064 23.4981 14.6357C23.4981 14.6601 23.1856 14.5234 22.7998 14.3232C21.7696 13.7861 21.6719 13.7861 20.6074 14.3476C20.2559 14.5381 19.9629 14.6846 19.9531 14.6748C19.9483 14.6699 19.9971 14.3769 20.0606 14.0303C20.1924 13.2832 20.2071 12.8975 20.1045 12.6533C20.0606 12.5508 19.7725 12.2139 19.4453 11.8818L18.8643 11.2959L19.6309 11.1836C20.8125 11.0127 20.9004 10.9492 21.3985 9.87499C21.5694 9.51366 21.7158 9.22069 21.7256 9.22069C21.7305 9.22069 21.9014 9.54784 22.1016 9.94335Z" fill="black"/>
</svg>
