<svg id="Слой_1" data-name="Слой 1" xmlns="http://www.w3.org/2000/svg" viewBox="0 0 411.25 319.65"><polygon points="246.85 147.24 246.85 176.17 238.87 176.17 238.87 166.75 207.44 166.75 207.38 166.7 207.38 158.92 207.54 158.76 230.83 131.33 207.38 131.34 207.38 123.35 242.12 123.35 242.12 131.01 218.53 158.76 238.87 158.76 238.87 147.24 246.85 147.24"/><polygon points="207.44 166.75 207.38 166.75 207.38 166.7 207.44 166.75"/><polygon points="158.39 123.35 158.39 166.75 123.71 166.75 123.71 152.28 131.69 152.28 131.69 158.76 150.41 158.76 150.41 131.33 141.05 131.33 141.05 123.35 158.39 123.35"/><polygon points="200.23 123.35 200.23 166.75 165.55 166.75 165.55 123.35 173.53 123.35 173.53 158.76 192.25 158.76 192.25 123.35 200.23 123.35"/><path d="M252.86,123.35v43.39h34.68V123.35Zm26.69,35.41H260.84V131.33h18.71Z"/><path d="M129.75,196.29a6.06,6.06,0,1,1,4.38-1.77A6,6,0,0,1,129.75,196.29Zm.05-1.8a4,4,0,0,0,3-1.21,4.09,4.09,0,0,0,1.23-3,4.16,4.16,0,0,0-1.23-3.07,4,4,0,0,0-3-1.22,4,4,0,0,0-3,1.24,4.45,4.45,0,0,0,0,6.07A4.09,4.09,0,0,0,129.8,194.49Z"/><path d="M149,192.38v-8h1.82V196.1h-1.09l-6.72-8v8H141.2V184.36h1Z"/><path d="M164.9,196.1h-8V184.36h1.83v10h6.2Z"/><path d="M169.74,196.1V184.36h1.83V196.1Z"/><path d="M185.42,192.38v-8h1.81V196.1h-1.08l-6.73-8v8h-1.81V184.36h.95Z"/><path d="M200.8,196.1h-7.52V184.36h7.5v1.73h-5.67v3.19h5.26V191h-5.26v3.36h5.69Z"/><path d="M258.16,196.1h-7.52V184.36h7.51v1.73h-5.68v3.19h5.26V191h-5.26v3.36h5.69Z"/><path d="M267.94,196.1h-4.29V184.36h4.44a5.16,5.16,0,0,1,4,1.58,6.11,6.11,0,0,1,1.47,4.31,5.93,5.93,0,0,1-1.51,4.27A5.43,5.43,0,0,1,267.94,196.1Zm-2.46-10v8.25H268a3.29,3.29,0,0,0,2.68-1.16,4.53,4.53,0,0,0,1-3,4.49,4.49,0,0,0-1-2.94A3.28,3.28,0,0,0,268,186.1Z"/><path d="M283.18,196.3a4.48,4.48,0,0,1-3.15-1.12,4.1,4.1,0,0,1-1.21-3.15v-7.67h1.83v7.43a2.84,2.84,0,0,0,.66,2,2.48,2.48,0,0,0,1.87.7,2.4,2.4,0,0,0,1.85-.72,2.82,2.82,0,0,0,.66-2v-7.43h1.85V192a4.06,4.06,0,0,1-1.21,3.16A4.49,4.49,0,0,1,283.18,196.3Z"/><rect x="208.4" y="189.24" width="34.55" height="1.7"/></svg>