<svg width="47" height="22" viewBox="0 0 47 22" fill="none" xmlns="http://www.w3.org/2000/svg">
<g clip-path="url(#clip0_1245_10973)">
<path d="M35.2785 7.37896V15.5888H33.0054V12.9156H24.0526L24.0355 12.9014V10.6936L24.0811 10.6481L30.7152 2.86396L24.0355 2.8668V0.599365H33.9312V2.77315L27.2116 10.6481H33.0054V7.37896H35.2785Z" fill="black"/>
<path d="M24.0524 12.9156H24.0355V12.9014L24.0524 12.9156Z" fill="black"/>
<path d="M10.0808 0.599365V12.9156H0.202271V8.80923H2.47536V10.6481H7.80773V2.86396H5.14154V0.599365H10.0808Z" fill="black"/>
<path d="M21.9988 0.599365V12.9156H12.1203V0.599365H14.3934V10.6481H19.7258V0.599365H21.9988Z" fill="black"/>
<path d="M36.9904 0.599365V12.9127H46.869V0.599365H36.9904ZM44.593 10.6481H39.2635V2.86396H44.593V10.6481Z" fill="black"/>
<path d="M1.9227 21.2986C1.52453 21.2921 1.14086 21.1487 0.836705 20.8926C0.532551 20.6365 0.326626 20.2835 0.253825 19.8935C0.181024 19.5034 0.245827 19.1003 0.437252 18.7524C0.628676 18.4045 0.934949 18.1333 1.30416 17.9846C1.67338 17.836 2.08282 17.8191 2.46311 17.9368C2.8434 18.0545 3.17113 18.2996 3.39078 18.6306C3.61042 18.9615 3.70847 19.3579 3.66829 19.7526C3.62812 20.1473 3.45219 20.516 3.17034 20.7963C3.00732 20.9598 2.81268 21.0886 2.59823 21.1749C2.38377 21.2613 2.15395 21.3033 1.9227 21.2986ZM1.93694 20.7878C2.09553 20.793 2.25346 20.7651 2.40061 20.706C2.54777 20.6469 2.6809 20.5578 2.79149 20.4444C2.90505 20.3338 2.99471 20.2012 3.05496 20.0548C3.11522 19.9084 3.14478 19.7513 3.14185 19.5931C3.14634 19.4317 3.11757 19.2711 3.05731 19.1213C2.99704 18.9714 2.90657 18.8355 2.79149 18.7218C2.68115 18.608 2.54812 18.5183 2.40095 18.4587C2.25379 18.3991 2.09574 18.3708 1.93694 18.3756C1.77773 18.3715 1.61942 18.4007 1.47223 18.4613C1.32504 18.5219 1.19224 18.6126 1.0824 18.7275C0.863542 18.9613 0.741837 19.2691 0.741837 19.5888C0.741837 19.9085 0.863542 20.2163 1.0824 20.4501C1.1944 20.5612 1.32791 20.6484 1.47482 20.7065C1.62173 20.7645 1.77896 20.7922 1.93694 20.7878Z" fill="black"/>
<path d="M7.40608 20.189V17.9188H7.92451V21.2447H7.61402L5.69984 18.9744V21.2447H5.18427V17.9131H5.46911L7.40608 20.189Z" fill="black"/>
<path d="M11.9352 21.2447H9.65637V17.9131H10.1776V20.7509H11.9437L11.9352 21.2447Z" fill="black"/>
<path d="M13.3138 21.2447V17.9131H13.8351V21.2447H13.3138Z" fill="black"/>
<path d="M17.7803 20.189V17.9188H18.2958V21.2447H17.9882L16.0712 18.9744V21.2447H15.5556V17.9131H15.8262L17.7803 20.189Z" fill="black"/>
<path d="M22.1612 21.2447H20.0192V17.9131H22.1555V18.404H20.5404V19.3093H22.0387V19.7974H20.5404V20.7509H22.1612V21.2447Z" fill="black"/>
<path d="M38.5001 21.2447H36.3581V17.9131H38.4973V18.404H36.8793V19.3093H38.3776V19.7974H36.8793V20.7509H38.5001V21.2447Z" fill="black"/>
<path d="M41.2859 21.2446H40.0639V17.913H41.3287C41.5398 17.9017 41.7509 17.9359 41.9475 18.0133C42.1441 18.0907 42.3217 18.2094 42.4681 18.3614C42.7606 18.7001 42.9106 19.1383 42.8868 19.5845C42.91 20.0292 42.7553 20.4649 42.4567 20.7962C42.3038 20.9483 42.1206 21.0667 41.919 21.144C41.7173 21.2212 41.5017 21.2555 41.2859 21.2446ZM40.5852 18.4068V20.748H41.303C41.4471 20.7554 41.591 20.7295 41.7234 20.6724C41.8558 20.6153 41.9732 20.5285 42.0664 20.4188C42.2609 20.1783 42.3621 19.8761 42.3513 19.5675C42.359 19.2644 42.258 18.9686 42.0664 18.7331C41.9731 18.6238 41.8556 18.5374 41.7231 18.4808C41.5907 18.4242 41.4469 18.3988 41.303 18.4068H40.5852Z" fill="black"/>
<path d="M45.627 21.3013C45.298 21.3147 44.9765 21.2008 44.7298 20.9834C44.6119 20.8673 44.5203 20.7276 44.4608 20.5735C44.4014 20.4193 44.3756 20.2544 44.3851 20.0895V17.9129H44.9064V20.0214C44.8937 20.2276 44.961 20.4308 45.0944 20.589C45.1645 20.6571 45.2481 20.7099 45.3398 20.7441C45.4315 20.7783 45.5293 20.7931 45.627 20.7876C45.7244 20.793 45.8218 20.7775 45.9127 20.7423C46.0036 20.7071 46.0859 20.6528 46.154 20.5833C46.2879 20.4254 46.3553 20.222 46.342 20.0157V17.9072H46.869V20.081C46.8796 20.2464 46.8544 20.4121 46.7949 20.5669C46.7354 20.7216 46.6431 20.8618 46.5243 20.9778C46.2783 21.1969 45.9568 21.3128 45.627 21.3013Z" fill="black"/>
<path d="M34.1676 19.2979H24.326V19.7803H34.1676V19.2979Z" fill="black"/>
</g>
<defs>
<clipPath id="clip0_1245_10973">
<rect width="47" height="21" fill="white" transform="translate(0 0.5)"/>
</clipPath>
</defs>
</svg>
