<svg width="25" height="26" viewBox="0 0 25 26" fill="none" xmlns="http://www.w3.org/2000/svg">
<path d="M8.22751 3.05859C4.5361 4.4209 4.21872 4.54297 4.17966 4.66504C4.082 4.93359 4.14548 4.97754 5.44919 5.48047L6.66501 5.95898L6.68942 7.4873L6.71384 9.02051L6.87009 9.11816L7.02634 9.21582L7.03122 10.6611C7.03122 12.4873 7.10934 12.9902 7.52438 13.918C7.83688 14.6162 8.56442 15.5391 9.14059 15.959L9.37497 16.1348V16.7646V17.3945H8.13473C6.79196 17.3945 6.39157 17.4385 5.85934 17.6533C4.77048 18.0928 3.97458 18.9863 3.63278 20.1533C3.55954 20.4023 3.54489 20.7197 3.53024 22.3408C3.51071 24.0889 3.51559 24.2451 3.59372 24.333C3.67673 24.4258 3.87692 24.4258 12.3388 24.4258H20.9961L21.0986 24.3232C21.1963 24.2256 21.1963 24.1914 21.1816 22.3359L21.167 20.4463L21.0107 20.002C20.5957 18.8154 19.7705 17.9854 18.6035 17.5801L18.1396 17.4238L16.7138 17.4043L15.2832 17.3848V16.7598V16.1396L15.4785 16.0029C15.581 15.9297 15.8593 15.6758 16.0888 15.4365C16.6748 14.8311 17.0654 14.2012 17.3193 13.4639C17.5732 12.7266 17.5879 12.5801 17.6123 10.8516L17.6367 9.21582L17.7929 9.11816L17.9443 9.02051L17.9687 7.49219L17.9931 5.96387L18.9599 5.57812L19.9218 5.19727V7.91699V10.6367L19.7656 10.6953C19.331 10.8516 18.9941 11.3447 18.9941 11.8184C18.9941 12.1943 19.0771 12.4336 19.2968 12.6826C19.6875 13.1221 20.2588 13.2344 20.791 12.9658C21.2744 12.7266 21.5185 12.2773 21.4697 11.7158C21.4258 11.2422 21.0547 10.7686 20.6494 10.6807L20.5078 10.6465V7.62891C20.5078 5.27539 20.4931 4.60156 20.4492 4.5625C20.3564 4.48926 12.4072 1.57422 12.3144 1.5791C12.2656 1.5791 10.4297 2.24805 8.22751 3.05859ZM16.0742 3.55664C17.9638 4.24512 19.3554 4.78223 19.3213 4.80176C19.2871 4.82129 17.7002 5.44629 15.7959 6.18359L12.3388 7.53125L8.86716 6.18359C6.95798 5.44141 5.37106 4.82129 5.33688 4.80176C5.3027 4.78711 6.40134 4.35742 7.77829 3.85449C9.15524 3.35156 10.7422 2.76562 11.3037 2.55566L12.3291 2.1748L12.5488 2.25781C12.6709 2.30176 14.2578 2.8877 16.0742 3.55664ZM9.76559 7.16504C11.1133 7.6875 12.2656 8.11719 12.3291 8.11719C12.3974 8.11719 13.5498 7.6875 14.8974 7.16504C16.2451 6.64258 17.3535 6.21289 17.3633 6.21289C17.3779 6.21289 17.3779 6.76465 17.373 7.44336L17.3584 8.67383L16.7871 8.85938C16.0888 9.0791 15.083 9.29883 14.2334 9.4209C13.3593 9.54297 11.3232 9.54297 10.4492 9.4209C9.57028 9.29883 8.71579 9.11328 7.95895 8.87891L7.29977 8.67871L7.28512 7.44336C7.28024 6.76953 7.28512 6.21289 7.29489 6.21289C7.30954 6.21289 8.41794 6.64258 9.76559 7.16504ZM9.1943 9.79688C10.3906 10.0459 10.9131 10.0898 12.3779 10.0898C13.5107 10.085 13.8623 10.0703 14.4384 9.98242C15.2002 9.87012 16.0302 9.69434 16.6504 9.51367L17.0508 9.39648L17.0312 10.915C17.0068 12.6533 16.9677 12.8828 16.5722 13.7275C16.1865 14.543 15.6103 15.2119 14.8584 15.7197C14.0869 16.2324 13.2861 16.4717 12.334 16.4717C11.5381 16.4717 10.9814 16.3398 10.2832 15.9932C9.80954 15.7588 9.55075 15.5732 9.1113 15.1533C8.51071 14.5723 8.13962 13.9912 7.87595 13.2197C7.6611 12.5898 7.61716 12.1602 7.61716 10.7295V9.40137L8.10544 9.53809C8.37399 9.61133 8.86227 9.72852 9.1943 9.79688ZM20.5908 11.291C20.9424 11.501 21.0058 12.0381 20.7129 12.3262C20.5273 12.5166 20.1709 12.5654 19.9267 12.4434C19.6093 12.2773 19.4922 11.8721 19.6679 11.5449C19.8437 11.2129 20.2685 11.0908 20.5908 11.291ZM10.5468 16.7402C11.2011 16.9893 11.7187 17.0674 12.5488 17.0381C13.3105 17.0137 13.8086 16.9062 14.3799 16.6426C14.5361 16.5742 14.6679 16.5156 14.6826 16.5156C14.6924 16.5156 14.6924 16.75 14.6875 17.0381L14.6728 17.5557L13.6718 18.1855C13.1201 18.5322 12.5781 18.8691 12.4658 18.9375L12.2656 19.0596L11.1133 18.3027L9.96091 17.5459V17.0234C9.96091 16.5498 9.96579 16.5059 10.0488 16.54C10.0927 16.5645 10.3174 16.6523 10.5468 16.7402ZM10.8642 18.835C11.582 19.3037 12.2021 19.6895 12.2412 19.6895C12.3388 19.6895 12.3828 19.665 13.8134 18.7764L15.0976 17.9756L16.5722 17.9902C18.0175 18.0098 18.0468 18.0098 18.4326 18.1416C19.3701 18.4541 20.1269 19.2158 20.4443 20.1533C20.5761 20.5439 20.581 20.5488 20.5957 22.1895L20.6103 23.8398H12.3584H4.10153V22.3115C4.10153 20.5537 4.13571 20.3291 4.45309 19.6895C4.74118 19.1084 5.24411 18.6104 5.81051 18.3271C6.43552 18.0195 6.66012 17.9902 8.21286 17.9854L9.5654 17.9805L10.8642 18.835Z" fill="black"/>
</svg>
