<svg width="25" height="26" viewBox="0 0 25 26" fill="none" xmlns="http://www.w3.org/2000/svg">
<path d="M3.58777 3.09724C2.77438 3.35933 2.2232 3.95839 2.05195 4.76071C2.00379 4.98001 1.99309 6.47766 2.00379 10.5909L2.01985 16.1268L2.13757 16.421C2.38909 17.0254 2.86 17.4908 3.4754 17.7208C3.78042 17.8384 3.82323 17.8384 7.54238 17.8545L11.299 17.8705L11.315 20.331L11.3311 22.7967L11.4595 22.8984C11.5772 22.9947 11.7057 23 14.4134 23C17.1747 23 17.2496 22.9947 17.3513 22.893C17.453 22.7914 17.4583 22.7165 17.4583 21.5826V20.3791H18.3359C19.1386 20.3791 19.2189 20.3684 19.3527 20.2668L19.4918 20.1598V19.0205V17.8812L19.8557 17.8491C20.8029 17.7689 21.5146 17.2554 21.8678 16.3996C21.9802 16.1322 21.9802 16.068 21.9962 10.5909C22.0069 6.47766 21.9962 4.98001 21.948 4.76071C21.7715 3.937 21.1507 3.2898 20.3266 3.0705C20.1019 3.01166 18.6517 2.99562 11.9732 3.00097C4.30485 3.00097 3.87674 3.00631 3.58777 3.09724ZM20.3052 3.85142C20.6691 3.99049 21.0169 4.33281 21.1507 4.69652C21.2524 4.96931 21.2577 5.11908 21.2577 10.3983C21.2577 16.405 21.2738 16.1429 20.9045 16.5708C20.6477 16.8703 20.2677 17.0575 19.8343 17.1003L19.4918 17.1324V15.8273C19.4918 14.8645 19.4704 14.4313 19.4115 14.1852C19.2028 13.292 18.5339 12.4736 17.7152 12.0939C17.4744 11.9815 17.1426 11.8585 16.9874 11.8264C16.8055 11.789 15.9011 11.7676 14.4991 11.7676C11.4328 11.7676 11.6201 11.7034 10.0468 13.2706L8.98187 14.335L7.89556 13.2545L6.80925 12.1687V9.94366C6.80925 7.77206 6.8039 7.71323 6.69687 7.57416C6.56309 7.403 6.32228 7.38695 6.1671 7.54207C6.06542 7.64369 6.06007 7.71858 6.06007 9.7725V11.896L5.28413 12.6769C4.64733 13.3241 4.5082 13.4899 4.5082 13.6129C4.5082 13.7466 4.75971 14.0194 6.18315 15.4475L7.85275 17.1217L5.84602 17.1057L3.83928 17.0896L3.56637 16.9452C3.41118 16.865 3.20248 16.6992 3.09546 16.5708C2.72622 16.1429 2.74227 16.405 2.74227 10.3983C2.74227 5.11908 2.74762 4.96931 2.8493 4.69652C2.98308 4.33816 3.32556 3.99049 3.6841 3.85142C3.94096 3.74979 4.17642 3.74979 11.9839 3.74444C19.8664 3.74444 20.0323 3.74444 20.3052 3.85142ZM17.0356 12.6234C17.8222 12.8641 18.3948 13.4364 18.6356 14.2227C18.7373 14.5383 18.7426 14.7255 18.7426 17.095V19.6303H18.1005H17.4583V17.4212C17.4583 15.378 17.453 15.2015 17.3673 15.1266C17.1426 14.9394 16.8804 14.9822 16.768 15.2282C16.7252 15.3192 16.7091 16.3889 16.7091 18.8012V22.2512H14.3813H12.0535V18.5605C12.0535 14.9394 12.0535 14.8699 11.9465 14.7629C11.711 14.5276 11.6201 14.5864 10.5337 15.6668C9.97186 16.2285 9.44208 16.7099 9.36181 16.7366C9.14776 16.8168 8.75712 16.8115 8.58588 16.7205C8.50561 16.6778 7.76178 15.961 6.92698 15.1266L5.41791 13.6129L5.87277 13.1583L6.32763 12.7036L7.60124 13.9766C8.58053 14.9555 8.9016 15.2443 9.00328 15.2443C9.10495 15.2443 9.40998 14.9715 10.3143 14.0676C10.9619 13.415 11.5719 12.8373 11.6682 12.7732C12.0535 12.5378 12.1819 12.5218 14.4937 12.5218C16.5379 12.5164 16.7198 12.5218 17.0356 12.6234ZM11.3043 16.5547V17.1164H10.7317H10.1538L10.7157 16.5547C11.0261 16.2445 11.2829 15.9931 11.2883 15.9931C11.299 15.9931 11.3043 16.2445 11.3043 16.5547Z" fill="black"/>
<path d="M14.0977 6.47767C13.4021 6.59534 12.7706 7.07673 12.4442 7.74532C12.2462 8.14113 12.2408 8.16788 12.2408 8.71345C12.2462 9.17345 12.2676 9.33926 12.3639 9.5746C12.7385 10.5053 13.6268 11.0616 14.6489 11.0081C16.265 10.9225 17.2657 9.20019 16.5486 7.72928C16.1098 6.82534 15.0931 6.30651 14.0977 6.47767ZM15.1359 7.32812C15.4302 7.45649 15.7834 7.81486 15.9172 8.11974C16.0724 8.46741 16.0724 8.98089 15.9118 9.33391C15.6657 9.88483 15.2054 10.2165 14.6168 10.2592C14.1084 10.2967 13.766 10.1683 13.4128 9.82065C13.0649 9.46763 12.9365 9.12531 12.974 8.61717C13.0061 8.21067 13.1077 7.97532 13.386 7.68649C13.8409 7.19975 14.5258 7.06068 15.1359 7.32812Z" fill="black"/>
</svg>
