<svg width="16" height="16" viewBox="0 0 16 16" fill="none" xmlns="http://www.w3.org/2000/svg">
<rect width="16" height="16" rx="8" fill="#72CEBF"/>
<g clip-path="url(#clip0_1402_10973)">
<path d="M11.0073 7.13787V9.0926H10.4269V8.45611H8.14108L8.13672 8.45274V7.92706L8.14835 7.91625L9.84217 6.06287L8.13672 6.06355V5.52368H10.6633V6.04125L8.94763 7.91625H10.4269V7.13787H11.0073Z" fill="black"/>
<path d="M8.14247 8.45749H8.13672V8.45276L8.14247 8.45749Z" fill="black"/>
<path d="M4.57382 5.52368V8.45611H2.05164V7.47841H2.632V7.91625H3.99345V6.06287H3.31273V5.52368H4.57382Z" fill="black"/>
<path d="M7.61672 5.52368V8.45611H5.09454V5.52368H5.67491V7.91625H7.03636V5.52368H7.61672Z" fill="black"/>
<path d="M11.4443 5.52368V8.45544H13.9665V5.52368H11.4443ZM13.3854 7.91625H12.0247V6.06287H13.3854V7.91625Z" fill="black"/>
<path d="M2.4909 10.452C2.38924 10.4505 2.29128 10.4163 2.21362 10.3554C2.13597 10.2944 2.08339 10.2104 2.0648 10.1175C2.04621 10.0246 2.06276 9.92864 2.11163 9.84581C2.16051 9.76298 2.23871 9.6984 2.33297 9.66301C2.42724 9.62761 2.53178 9.62359 2.62887 9.65162C2.72597 9.67965 2.80965 9.738 2.86573 9.81679C2.92181 9.89559 2.94684 9.98997 2.93658 10.0839C2.92632 10.1779 2.88141 10.2657 2.80944 10.3324C2.76782 10.3714 2.71813 10.402 2.66337 10.4226C2.60862 10.4432 2.54994 10.4532 2.4909 10.452ZM2.49453 10.3304C2.53502 10.3317 2.57535 10.325 2.61292 10.3109C2.65049 10.2969 2.68448 10.2757 2.71272 10.2487C2.74171 10.2223 2.7646 10.1908 2.77999 10.1559C2.79537 10.121 2.80292 10.0836 2.80217 10.046C2.80332 10.0075 2.79597 9.96931 2.78058 9.93363C2.7652 9.89795 2.7421 9.86559 2.71272 9.83853C2.68454 9.81142 2.65058 9.79008 2.613 9.77588C2.57543 9.76168 2.53508 9.75495 2.49453 9.7561C2.45388 9.75512 2.41346 9.76207 2.37588 9.7765C2.3383 9.79093 2.3044 9.81252 2.27635 9.83988C2.22047 9.89555 2.1894 9.96883 2.1894 10.0449C2.1894 10.1211 2.22047 10.1943 2.27635 10.25C2.30495 10.2765 2.33904 10.2972 2.37654 10.3111C2.41405 10.3249 2.4542 10.3315 2.49453 10.3304Z" fill="black"/>
<path d="M3.89088 10.1879V9.64735H4.02325V10.4392H3.94397L3.45524 9.8987V10.4392H3.32361V9.646H3.39634L3.89088 10.1879Z" fill="black"/>
<path d="M5.04727 10.4392H4.46545V9.646H4.59855V10.3217H5.04945L5.04727 10.4392Z" fill="black"/>
<path d="M5.39929 10.4392V9.646H5.53238V10.4392H5.39929Z" fill="black"/>
<path d="M6.53962 10.1879V9.64735H6.67126V10.4392H6.59271L6.10326 9.8987V10.4392H5.97162V9.646H6.04071L6.53962 10.1879Z" fill="black"/>
<path d="M7.65818 10.4392H7.11127V9.646H7.65672V9.76289H7.24436V9.97843H7.6269V10.0946H7.24436V10.3217H7.65818V10.4392Z" fill="black"/>
<path d="M11.8298 10.4392H11.2829V9.646H11.8291V9.76289H11.416V9.97843H11.7985V10.0946H11.416V10.3217H11.8298V10.4392Z" fill="black"/>
<path d="M12.5411 10.4391H12.2291V9.64589H12.552C12.6059 9.6432 12.6598 9.65134 12.71 9.66977C12.7602 9.68819 12.8055 9.71646 12.8429 9.75264C12.9176 9.83329 12.9559 9.93762 12.9498 10.0439C12.9557 10.1497 12.9162 10.2535 12.84 10.3324C12.8009 10.3686 12.7542 10.3968 12.7027 10.4152C12.6512 10.4336 12.5962 10.4417 12.5411 10.4391ZM12.3622 9.76346V10.3209H12.5454C12.5822 10.3226 12.619 10.3165 12.6528 10.3029C12.6866 10.2893 12.7165 10.2686 12.7403 10.2425C12.79 10.1853 12.8158 10.1133 12.8131 10.0398C12.815 9.96766 12.7892 9.89723 12.7403 9.84116C12.7165 9.81512 12.6865 9.79455 12.6527 9.78107C12.6189 9.76759 12.5822 9.76157 12.5454 9.76346H12.3622Z" fill="black"/>
<path d="M13.6494 10.4528C13.5654 10.4559 13.4833 10.4288 13.4203 10.3771C13.3903 10.3494 13.3668 10.3162 13.3517 10.2795C13.3365 10.2428 13.3299 10.2035 13.3323 10.1642V9.646H13.4654V10.148C13.4622 10.1971 13.4794 10.2455 13.5134 10.2832C13.5313 10.2994 13.5527 10.312 13.5761 10.3201C13.5995 10.3282 13.6245 10.3318 13.6494 10.3305C13.6743 10.3317 13.6992 10.3281 13.7224 10.3197C13.7456 10.3113 13.7666 10.2984 13.784 10.2818C13.8182 10.2442 13.8354 10.1958 13.832 10.1467V9.64465H13.9665V10.1622C13.9692 10.2016 13.9628 10.2411 13.9476 10.2779C13.9324 10.3147 13.9089 10.3481 13.8785 10.3757C13.8157 10.4279 13.7336 10.4555 13.6494 10.4528Z" fill="black"/>
<path d="M10.7237 9.97571H8.21094V10.0906H10.7237V9.97571Z" fill="black"/>
</g>
<defs>
<clipPath id="clip0_1402_10973">
<rect width="12" height="5" fill="white" transform="translate(2 5.5)"/>
</clipPath>
</defs>
</svg>
