<svg width="50" height="50" viewBox="0 0 50 50" fill="none" xmlns="http://www.w3.org/2000/svg">
<path d="M22.7539 0.0979614C14.0528 0.937805 6.47463 6.14288 2.63674 13.9163C1.07424 17.0804 0.332056 19.8245 0.0781497 23.4183C-0.156225 26.6898 0.371118 30.4495 1.5137 33.555C1.95315 34.7562 3.14456 37.2073 3.76956 38.1839C5.80081 41.3773 8.88674 44.4437 11.9629 46.3187C17.7637 49.8441 24.6973 50.8694 31.2598 49.18C35.4492 48.1058 39.1797 46.0062 42.3535 42.93C50.3516 35.2151 52.2656 23.3011 47.1192 13.4085C45.8985 11.0648 44.3457 9.00421 42.3535 7.06085C38.5938 3.40851 33.8672 1.06476 28.6621 0.283508C27.1875 0.0588989 24.1504 -0.0289917 22.7539 0.0979614ZM34.375 15.7327C36.1719 16.1429 37.7442 17.8226 38.0762 19.6683C38.2227 20.4593 38.2227 29.5413 38.0762 30.3323C37.7442 32.178 36.1719 33.8577 34.375 34.2679C33.7696 34.4046 16.2305 34.4046 15.625 34.2679C13.8281 33.8577 12.2559 32.178 11.9239 30.3323C11.7774 29.5413 11.7774 20.4593 11.9239 19.6683C12.2559 17.8421 13.8281 16.1429 15.586 15.7327C16.1328 15.6058 33.8184 15.6058 34.375 15.7327Z" fill="#DA0000"/>
<path d="M21.582 25V28.9941L22.6855 28.3594C23.2812 27.998 24.8047 27.1191 26.0547 26.3965C27.2949 25.6738 28.3203 25.0391 28.3203 25C28.3203 24.9609 27.2949 24.3262 26.0547 23.6035C24.8047 22.8809 23.2812 22.002 22.6855 21.6406L21.582 21.0059V25Z" fill="#DA0000"/>
</svg>
