<svg width="50" height="50" viewBox="0 0 50 50" fill="none" xmlns="http://www.w3.org/2000/svg">
<path d="M23.4179 0.107265C17.4414 0.449062 11.7089 3.04672 7.36323 7.37289C2.29487 12.4217 -0.341844 19.3748 0.107375 26.494C0.224562 28.3104 0.400343 29.5018 0.830031 31.1912C1.25972 32.91 1.70894 34.1112 2.63667 35.9959C3.86714 38.5155 5.39058 40.6444 7.373 42.6268C11.3867 46.6405 16.6992 49.2088 22.2656 49.8045C23.7402 49.9705 26.582 49.9413 28.0761 49.7557C38.5253 48.4666 47.0507 40.703 49.3652 30.4002C50.3613 25.9276 50.039 20.7713 48.4863 16.533C48.291 16.0057 47.7832 14.8631 47.3632 13.994C44.4921 8.13461 39.5019 3.68148 33.291 1.46469C31.3867 0.771328 28.916 0.25375 27.0507 0.146328C25.1171 0.0291405 24.7168 0.0291405 23.4179 0.107265ZM39.7753 12.9295C40.2832 13.1346 40.625 13.6131 40.625 14.1112C40.625 14.619 35.791 36.0448 35.5957 36.4354C35.3418 36.9237 34.8828 37.158 34.2187 37.158C33.5449 37.158 33.9355 37.3924 28.3691 33.6131L25.9277 31.9627L24.0234 33.7596C22.9785 34.7557 22.0019 35.6248 21.8554 35.703C21.3574 35.9666 20.6933 35.8299 20.2929 35.3807C20.1953 35.2733 19.5019 33.369 18.7402 31.1424C17.9882 28.9159 17.3535 27.0897 17.3437 27.0799C17.3339 27.0702 15.6347 26.6014 13.5742 26.035C9.40425 24.8924 9.37495 24.8729 9.37495 24.1209C9.37495 23.867 9.44331 23.662 9.59956 23.4959C9.76558 23.3006 12.8613 22.1483 24.3164 18.0272C32.2949 15.1561 38.9648 12.8026 39.1406 12.7928C39.3164 12.7928 39.5996 12.8514 39.7753 12.9295Z" fill="#149FE4"/>
<path d="M26.8065 21.7285C21.7772 24.6094 18.8476 26.3477 18.7597 26.4941C18.6327 26.6992 18.7108 26.9922 19.7167 30.0098C20.3222 31.8164 20.8495 33.3008 20.8886 33.3008C20.9276 33.3008 21.0839 32.3145 21.2304 31.1035C21.3769 29.8926 21.5136 28.8379 21.5429 28.7695C21.5722 28.7012 24.619 26.1621 28.33 23.1348C33.6425 18.7988 35.0585 17.5879 35.039 17.4316C35.0194 17.3242 34.9413 17.2266 34.8632 17.2168C34.785 17.1973 31.162 19.2285 26.8065 21.7285Z" fill="#149FE4"/>
</svg>
