<svg width="50" height="50" viewBox="0 0 50 50" fill="none" xmlns="http://www.w3.org/2000/svg">
<rect width="50" height="50" rx="25" fill="black"/>
<path d="M22.0133 21.6003V20.3523C21.5998 20.2908 21.1825 20.2591 20.7649 20.257C15.6563 20.257 11.5 24.6103 11.5 29.9602C11.5 33.2419 13.0662 36.1471 15.4553 37.9039C13.8555 36.1123 12.966 33.7507 12.9674 31.2978C12.9674 26.024 17.0055 21.7233 22.0133 21.6003Z" fill="#00F2EA"/>
<path d="M22.232 35.7287C24.5114 35.7287 26.3706 33.8297 26.4555 31.4631L26.4633 10.3376H30.1487C30.0699 9.89634 30.0302 9.4487 30.0299 9H24.9963L24.9878 30.1263C24.9039 32.4921 23.0437 34.3904 20.7649 34.3904C20.0808 34.3907 19.4069 34.2162 18.8019 33.8816C19.5946 35.04 20.8712 35.7272 22.232 35.7287ZM37.0326 16.3346C35.6783 16.336 34.3529 15.9232 33.2192 15.1474C34.2133 16.346 35.5513 17.1744 37.0333 17.5086" fill="#00F2EA"/>
<path d="M33.2192 15.1464C32.1084 13.8152 31.4962 12.1068 31.4969 10.3386H30.1484C30.5011 12.3133 31.611 14.0509 33.2192 15.1464ZM20.7649 25.5283C18.4291 25.5312 16.5363 27.5134 16.5336 29.9595C16.535 31.6064 17.4082 33.1168 18.8012 33.8819C18.2807 33.1303 18.0006 32.2261 18.0006 31.2978C18.003 28.8516 19.8958 26.8688 22.232 26.8659C22.6679 26.8659 23.0858 26.9413 23.4803 27.0711V21.6895C23.0668 21.628 22.6496 21.5963 22.232 21.5942C22.1586 21.5942 22.0863 21.5985 22.0137 21.5999V25.7335C21.6096 25.5991 21.1886 25.5298 20.7649 25.5283Z" fill="#FF004F"/>
<path d="M37.0326 21.6056C34.4221 21.6056 32.0045 20.7313 30.0295 19.2472V29.9599C30.0295 35.3098 25.8739 39.6624 20.7653 39.6624C18.791 39.6624 16.9604 39.01 15.4556 37.9035C17.2045 39.8786 19.6602 41.0007 22.232 41C27.3406 41 31.4969 36.6474 31.4969 31.2982V20.5855C33.537 22.1218 35.9873 22.9471 38.5 22.9439V17.6711C37.9962 17.6711 37.5062 17.6139 37.0323 17.5075" fill="#FF004F"/>
<path d="M30.0292 29.9595V19.2469C32.0693 20.7836 34.5196 21.6084 37.0323 21.6052V17.5086C35.5507 17.174 34.2126 16.3453 33.2189 15.1464C31.6106 14.0509 30.5008 12.3133 30.148 10.3386H26.463L26.4551 31.4642C26.3706 33.83 24.5111 35.729 22.2316 35.729C20.8712 35.7276 19.5943 35.04 18.8019 33.8823C17.4089 33.1175 16.5353 31.6071 16.5336 29.9599C16.5363 27.5137 18.4291 25.5315 20.7649 25.5287C21.2002 25.5287 21.6181 25.6034 22.0133 25.7338V21.6003C17.0055 21.7233 12.9674 26.024 12.9674 31.2978C12.9674 33.8482 13.9136 36.1699 15.4553 37.9039C17.0096 39.0498 18.8643 39.6639 20.7649 39.6621C25.8739 39.6621 30.0292 35.3095 30.0292 29.9595Z" fill="white"/>
</svg>
